<svg xmlns="http://www.w3.org/2000/svg" version="1.1" width="600px" height="600px" xlink="http://www.w3.org/1999/xlink" style="overflow:hidden!important;"><g id="svga-group-wrapper" transform="scale(3 3)"><g id="svga-group-backs-single"><path id="SvgjsPath2745" d="M225 225H-25V-25h250V225z" fill="#ecf0f1" stroke-width="none" opacity="1"></path></g><g id="svga-group-subwrapper" ><g id="svga-group-hair-back" ><path id="SvgjsPath3157" d="M41.279 215.266c-0.033-0.044-0.063-0.094-0.095-0.14 3.872-1.418 107.984 7.4 115.031 6.323 -0.001 0.108-0.007 0.217-0.007 0.325 0.282-0.064 0.24-0.075 0.254-0.359 0.259-0.032 1.051-0.167 0.027-0.457 3.485-63.467 43.554-53.333 20.529-111.343 -5.448-13.536-5.042-26.26-6.357-42.117 -1.84 1.797-1.238 11.106-3.489 28.325 17.078 53.526 2.414 51.246-11.503 76.872 -4.604 8.467-8.295 17.095-9.091 26.65 -22.673-39.208-16.05-38.328-6.981-62.078 -1.56 2.201-7.898 6.916-13.709 8.025 14.211-10.797 22.683-10.831 22.98-76.708 -13.031-6.03-24.886-17.239-32.2-29.8 -9.476 19.65-26.281 27.875-47.75 31.14 -5.35 2.72-10.92 5-16.55 7.08 -0.476 27.679 6.753 46.579 21.26 66.64 -5.091-3.645-10.294-9.649-13.96-14.758 4.4 8.811 10.944 16.104 9.16 31.867 -1.972 17.313-18.629 29.105-18.629 51.372 -16.264-25.388-21.752-14.633-17.979-42.312 -6.177-10.806-9.18-18.142-11.68-25.979 -0.605-0.005-1.578 0.138-2.133 0.204C11.333 170.695 21.465 190.498 41.279 215.266z" fill="#1b141c" stroke-width="none" opacity="1"></path><path id="SvgjsPath3158" d="M142.489 227.847h-90V97.24h90V227.847z" fill="#0c080c" stroke-width="none" opacity="1"></path><path id="SvgjsPath3159" d="M156.49 220.958c3.485-63.467 43.554-53.333 20.529-111.343 -4.317-10.726-4.958-20.946-5.692-32.615 -0.213 0-0.427 0-0.641 0 0.342 11.384 0.54 21.512 3.883 31.266 20.946 61.4-17.667 48.849-18.343 112.635 -4.423-0.602-111.114-7.244-115.042-5.775 -14.061-20.667-24.449-40.831-22.283-63.372 -0.668-0.594-1.228-1.297-1.759-2.028 -4.286 23.862 5.757 42.566 24.137 65.541 -0.033-0.044-0.063-0.094-0.095-0.14 3.872-1.418 107.984 7.4 115.031 6.323 -0.001 0.108-0.007 0.217-0.007 0.325 0.282-0.064 0.24-0.075 0.254-0.359C156.722 221.383 157.514 221.248 156.49 220.958z" fill="#000000" stroke-width="none" opacity="1"></path></g><g id="svga-group-humanbody-single"><path id="SvgjsPath2761" d="M190.858 199.866c-6.008-10.158-13.474-11.973-19.628-13.936 -6.323-2.016-19.346-3.178-26.449-4.6 -6.86-1.373-23.153-5.789-23.339-13.488 -0.192-8.066 4.291-40.09 4.291-40.09H74.005c0 0 4.487 32.023 4.294 40.09 -0.184 7.699-16.48 12.115-23.341 13.488 -7.104 1.422-20.125 2.584-26.448 4.6 -6.156 1.963-13.624 3.777-19.632 13.936 -3.644 6.16-6.008 16.133-6.008 27.133h194C196.869 215.999 194.509 206.026 190.858 199.866z" fill="#ecc4b8" stroke-width="none" opacity="1" stroke="none"></path><path id="SvgjsPath2762" d="M121.442 167.843c2.495 10.929 18.165 13.698 26.293 15.325 21.909 4.379 33.772 5.134 42.297 19.539 2.903 4.916 5.459 15.864 5.962 24.153 1.835 0.291 0.531-17.432-5.136-26.994 -9.742-16.472-29.089-15.135-46.077-18.535C137.921 179.958 121.628 175.542 121.442 167.843L121.442 167.843zM78.558 167.843c-0.186 7.699-16.479 12.115-23.339 13.488 -16.988 3.4-36.335 2.063-46.077 18.535 -5.667 9.563-6.971 27.285-5.136 26.994 0.503-8.289 3.059-19.237 5.962-24.153 8.524-14.405 20.388-15.16 42.297-19.539C60.393 181.541 76.063 178.771 78.558 167.843L78.558 167.843z" fill="#fbe4dd" stroke-width="none" opacity="1" stroke="none"></path><path id="SvgjsPath2763" d="M51.206 189.513c0 0 28.641 0.299 33.473 1.885 2.314 0.758 8.372 5.633 8.372 5.633s-6.556-3.17-8.658-3.758C79.51 191.909 51.206 189.513 51.206 189.513zM99.795 199.999c2.053-0.041 7.887-3.799 7.887-3.799s-5.574 2.059-7.342 2.16c-1.491 0.086-6.366-1.238-6.366-1.238S98.112 200.032 99.795 199.999zM117.008 192.757c6.75-1.818 29.786-3.23 29.786-3.23s-23.791-0.516-30.51 1.725c-2.252 0.752-7.562 5.16-7.562 5.16S114.786 193.354 117.008 192.757z" fill="#dda696" stroke-width="none" opacity="1" stroke="none"></path><path id="SvgjsPath2764" d="M190.858 199.866c-9.741-16.471-29.122-15.142-46.077-18.535 -6.86-1.373-23.153-5.789-23.339-13.488 -0.192-8.066 4.291-40.09 4.291-40.09H74.005c0 0 4.487 32.023 4.294 40.09 -0.184 7.699-16.48 12.115-23.341 13.488 -7.104 1.422-20.125 2.584-26.448 4.6 -6.156 1.963-13.624 3.777-19.632 13.936 -3.644 6.16-6.008 16.133-6.008 27.133h194C196.869 215.999 194.509 206.026 190.858 199.866z" fill="none" stroke="#be725b" stroke-width="1.5" opacity="1"></path></g><g id="svga-group-chinshadow-single"><path id="SvgjsPath2938" d="M90.469 169.769c4.474 1.646 14.594 1.646 19.067 0 3.511-1.291 7.479-4.019 11.489-7.484 0.785-10.522 3.279-28.936 3.919-33.578 -1.113-0.109-2.256-0.21-3.428-0.303H78.609c-1.305 0.103-2.578 0.216-3.811 0.339 0.643 4.663 3.096 22.765 3.899 33.297C82.804 165.622 86.875 168.447 90.469 169.769z" fill="url(#SvgjsLinearGradient2939)" opacity="1"></path></g><g id="svga-group-clothes-single" ><path id="SvgjsPath3180" d="M4.299 238.659c-0.18-1-2.264-16.415-2.47-22.946 -0.294-9.499 1.371-23.079 10.881-22.987 10.824-7.524 29.089-14.021 41.718-17.795 7.903-8.587 9.483-11.971 22.612-17.874l-0.01-0.127c1.513 10.484 2.967 15.62-8.844 19.862 -1.893 2.63-3.665 5.194-6.158 8.787 3.793 20.511 4.981 34.739 5.444 53.437 0 0 3.771 0.011 65.288-0.271 2.066-21.594-0.221-33.876 4.806-53.726 0 0-4.021-4.846-6.726-8.573 -11.595-4.517-9.139-11.206-8.146-19.353 10.072 4.714 13.179 8.309 21.653 17.281 6.702 1.904 13.776 3.962 20.646 6.653 9.097 3.563 20.648 10.538 21.648 11.366 3.7-0.107 5.789 1.931 7.347 5.283 5.044 10.821 3.85 26.385 2.034 41.358C178.207 239.065 55.08 241.174 4.299 238.659z" fill="#ce005b" stroke-width="none" opacity="1"></path><path id="SvgjsPath3181" d="M77.464 159.895c0.149 1.034 0.284 2.015 0.383 2.938 -0.204 0.257-15.968 22.574-16.084 22.742C65.661 176.392 71.143 166.878 77.464 159.895zM122.424 159.895c-0.148 1.034-0.172 2.015-0.271 2.938 0.203 0.257 15.799 21.719 15.914 21.887C133.938 176.165 128.746 166.878 122.424 159.895zM158.775 189.93c-3.994 6.022-4.847 8.102-9.219 14.07 1 0 2.612 0.162 3.612 0.162C156.588 198.086 156.594 194.993 158.775 189.93zM162.868 233.644c3.54-8.603 6.471-16.152 10.022-24.768l-1.164-1.946C168.77 215.778 165.631 224.77 162.868 233.644zM46.831 204.162c1 0 2.612-0.162 3.612-0.162 -4.372-5.969-5.225-6.342-9.219-12.364C43.406 196.699 43.412 198.086 46.831 204.162zM28.273 206.93l-1.164 1.946c3.552 8.615 4.447 16.165 7.987 24.768C32.333 224.77 31.23 215.778 28.273 206.93z" fill="#bf0054" stroke-width="none" opacity="1"></path><path id="SvgjsPath3182" d="M77.059 169.855c-0.83 2.3-3.59 4.11-5.59 5.25 -0.97 0.55-1.99 1.02-3.02 1.46 0.47-0.68 0.95-1.36 1.44-2.03 2.32-3.24 4.58-6.5 6.75-9.85 0.31-0.48 0.61-0.97 0.91-1.46C77.709 165.396 77.889 167.875 77.059 169.855zM123.169 170.306c-1.26-2.11-1.14-4.94-1-7.351 2.3 4.101 4.72 8.11 7.45 11.971 0.28 0.399 0.56 0.79 0.85 1.18C127.549 174.795 124.829 173.096 123.169 170.306z" fill="#af004d" stroke-width="none" opacity="1"></path><path id="SvgjsPath3183" d="M122.672 157.263c0.007-0.057 0.015-0.112 0.021-0.169 16.884 9.666 24.725 22.013 36.082 32.836 -0.418 0.697-1.146 1.155-1.573 1.843C145.308 182.397 141.597 170.396 122.672 157.263zM75.469 157.905c-14.219 4.537-32.507 31.672-34.445 33.519 0.418 0.697 0.645 0.558 1.073 1.245C53.992 183.294 54.309 172.286 75.469 157.905zM193.988 197.678c-1.558-3.353-3.646-5.391-7.347-5.283 -1-0.828-12.552-7.804-21.648-11.366 -6.636-2.6-13.705-3.761-20.203-5.61 31.446 15.756 44.648 20.435 50.14 26.017C194.642 200.654 194.332 198.416 193.988 197.678zM10 198c14.511-7.683 26.714-13.407 44.203-23.001 -12.62 3.784-30.732 10.246-41.493 17.727 -7.185-0.069-9.89 7.664-10.658 15.546C5.147 202.205 6.798 200.401 10 198z" fill="#dd166e" stroke-width="none" opacity="1"></path><path id="SvgjsPath3184" d="M197.589 214.005c-0.21-5.52-1.16-11.329-3.51-16.369 -1.24-2.67-2.91-4.83-5.979-5.24 -0.36-0.05-0.721-0.08-1.08-0.09 -0.11-0.011-0.23-0.021-0.341-0.011 -0.069-0.06-0.149-0.1-0.22-0.149 -2.31-1.47-4.7-2.82-7.01-4.17 -4.66-2.721-9.39-5.07-14.42-7.04 -6.74-2.641-13.66-4.67-20.61-6.63 -0.79-0.83-1.59-1.67-2.38-2.511 -3.51-3.729-6.99-7.409-11.24-10.319 -2.3-1.58-4.75-2.92-7.27-4.101 -0.271-0.13-0.54-0.25-0.811-0.38 -0.029-0.02-0.069-0.029-0.109-0.05 -0.021 0.2-0.05 0.39-0.08 0.58 -0.2 1.33-0.42 2.67-0.58 4 -0.04 0.29-0.07 0.57-0.1 0.86 -0.011 0.149-0.03 0.29-0.04 0.439 -0.23 2.66-0.32 5.66 1.159 8 1.82 2.87 4.7 4.49 7.79 5.68 2.011 2.771 4.12 5.431 6.36 8.061 0.12 0.14 0.24 0.28 0.35 0.43 -0.939 3.71-1.59 7.51-2.17 11.28 -0.819 5.42-1.35 10.84-1.489 16.32 -0.15 5.449-0.011 10.939-0.311 16.39 -0.17 3.22-0.53 6.44-0.83 9.66 -1.069 0-2.14 0.01-3.21 0.01 -10.58 0.05-21.149 0.1-31.72 0.15 -10.06 0.05-20.11 0.08-30.17 0.109 -0.21-9.699-0.71-19.359-1.81-29.01 -0.58-5.01-1.06-10.04-1.95-15.01 -0.55-3.09-1.1-6.18-1.7-9.26 2.03-2.92 4.05-5.851 6.11-8.75 3.65-1.311 7.29-3.131 9.13-6.58 1.14-2.16 0.78-5.261 0.54-7.65 -0.01-0.1-0.02-0.189-0.03-0.29 -0.03-0.27-0.05-0.53-0.09-0.79 -0.15-1.359-0.36-2.72-0.55-4.07 -0.04-0.199-0.06-0.39-0.09-0.59 -0.05 0.021-0.09 0.04-0.13 0.051 -0.29 0.13-0.58 0.25-0.87 0.369 -2.75 1.17-5.42 2.521-7.9 4.181 -2.34 1.56-4.5 3.33-6.53 5.27 -1.99 1.91-3.76 4.09-5.6 6.141 -0.57 0.64-1.14 1.27-1.7 1.909 -1.31 0.391-2.61 0.801-3.91 1.2 -4.93 1.53-9.75 3.29-14.58 5.11 -2.61 0.99-5.18 2.07-7.75 3.16 -2.38 1.02-4.81 2.01-7.07 3.279 -2.51 1.4-5.09 2.86-7.56 4.48 -0.18 0.11-0.36 0.229-0.54 0.35 -0.11 0.07-0.21 0.141-0.31 0.21 -0.6-0.01-1.2 0.03-1.79 0.15 -3.79 0.729-6.07 4.16-7.31 7.55 -1.79 4.891-2.01 10.24-1.85 15.391 0.17 5.38 0.92 10.71 1.56 16.039 0.27 2.271 0.57 4.53 0.9 6.79 0 0.07 0.01 0.141 0.03 0.21 0.61 0.03 1.22 0.061 1.83 0.091 4.09 0.21 8.18 0.39 12.27 0.479 16.34 0.37 32.69 0.65 49.03 0.71 0.08 0 0.16 0 0.24 0 4.1 0.01 8.19 0.01 12.29-0.01 11.2-0.06 22.4-0.11 33.61-0.16 6.36-0.03 12.72-0.06 19.08-0.1 0.09 0 0.18 0 0.27-0.011 5.011-0.02 10.021-0.06 15.03-0.119 15.45-0.16 30.91-0.36 46.36-0.48 0.63-0.01 1.25-0.02 1.88-0.02 0.02-0.131 0.029-0.25 0.04-0.381 0.279-2.46 0.529-4.93 0.76-7.39C197.449 225.565 197.81 219.835 197.589 214.005zM77.059 169.855c-0.83 2.3-3.59 4.11-5.59 5.25 -0.97 0.55-1.99 1.02-3.02 1.46 0.47-0.68 0.95-1.36 1.44-2.03 2.32-3.24 4.58-6.5 6.75-9.85 0.31-0.48 0.61-0.97 0.91-1.46C77.709 165.396 77.889 167.875 77.059 169.855zM64.689 238.926c-12.94 0.029-25.88 0.06-38.82-0.011 -0.1 0-0.19 0-0.29 0 -6.52-0.04-13.03-0.16-19.55-0.319 -0.29-2.9-0.59-5.811-0.94-8.71 -0.69-5.681-1.44-11.36-1.4-17.101 0.03-5.2 0.18-11.33 3.06-15.859 1.11-1.75 2.74-2.95 4.65-3.421 0.54-0.14 1.11-0.22 1.7-0.22 0.01-0.01 0.01-0.01 0.02 0 0.31 2.05 0.66 4.09 1.01 6.141 0.36 2.159 0.64 4.34 1.22 6.449 0.62 2.19 1.25 4.38 1.95 6.551 1.3 4 2.59 8 3.85 12.02 1.26 4.06 3.14 7.86 4.73 11.79 -1.11-4.08-2.59-8.04-3.6-12.14 -0.99-3.98-2.25-7.83-3.53-11.721 -0.37-1.12-0.71-2.239-1.03-3.37 -0.94-3.229-1.72-6.47-2.45-9.77 -0.49-1.98-0.96-3.96-1.44-5.94 -0.03-0.119-0.06-0.229-0.09-0.35 0.12-0.06 0.24-0.12 0.35-0.18 0.28-0.15 0.56-0.29 0.83-0.431 2.67-1.39 5.35-2.76 8.08-4.02 4.87-2.23 9.93-4.21 14.94-6.11 5.05-1.91 10.08-3.859 15.1-5.85 -2.34 2.63-4.66 5.27-6.93 7.96 -1.78 2.11-3.35 4.35-4.84 6.64 -0.14 0.21-0.28 0.42-0.41 0.641 0.11 0.189 0.23 0.37 0.36 0.56 2.54 3.89 5.15 7.76 7.83 11.561 -2.62 0.22-5.24 0.47-7.85 0.789 -3.51 0.431-6.99 0.931-10.44 1.721 -0.73 0.17-1.46 0.33-2.2 0.479 -0.31 0.07-0.62 0.141-0.94 0.2 0.07 0.2 0.13 0.41 0.19 0.61 2.53 8.71 4.24 17.66 7.32 26.22 -0.87-5.3-1.74-10.57-2.98-15.8 -0.72-2.99-1.52-5.96-2.6-8.851 -0.21-0.58-0.45-1.149-0.7-1.72 0.7-0.1 1.4-0.22 2.1-0.35 3.52-0.63 7.04-1.2 10.59-1.63 2.64-0.32 5.26-0.71 7.88-1.141 0.39-0.06 0.78-0.12 1.17-0.189 -0.09-0.15-0.18-0.301-0.27-0.45 -1.07-1.82-2.21-3.601-3.41-5.36 -1.66-2.33-3.38-4.56-5.18-6.74 1.78-2.289 3.72-4.42 5.72-6.529 3.1-3.271 6.08-6.63 9.08-9.99 0.26-0.3 0.53-0.61 0.8-0.91 0.06-0.06 0.11-0.13 0.17-0.189 3.5-3.95 6.95-7.83 11.19-11.051 2.44-1.869 5.06-3.47 7.78-4.93 0.2-0.11 0.39-0.21 0.59-0.31 0.14 1.47 0.3 2.939 0.4 4.42 -2.85 4.09-5.75 8.149-8.67 12.21 -0.74 1.02-1.46 2.05-2.17 3.08 -0.04 0.05-0.08 0.109-0.12 0.16 -1.58 2.3-3.12 4.63-4.61 6.989 -0.13 0.21-0.26 0.41-0.39 0.62 0.05 0.42 0.09 0.83 0.14 1.24 0.97 9.04 1.84 18.09 2.86 27.13 0.95 8.49 1.65 17 2.7 25.47C66.359 238.926 65.529 238.926 64.689 238.926zM123.169 170.306c-1.26-2.11-1.14-4.94-1-7.351 2.3 4.101 4.72 8.11 7.45 11.971 0.28 0.399 0.56 0.79 0.85 1.18C127.549 174.795 124.829 173.096 123.169 170.306zM189.979 238.695c-5.431-0.03-10.87-0.06-16.301-0.08 -13.55-0.04-27.09-0.03-40.63 0.03 0.11-0.62 0.23-1.25 0.34-1.87 0.551-3.04 1.25-6.12 1.45-9.2 0.37-5.479 0.511-10.939 0.66-16.43 0.14-5.41 0.78-10.811 1.32-16.18 0.319-3.141 0.64-6.29 1.12-9.41 0.06-0.41 0.12-0.811 0.189-1.21 -0.1-0.15-0.21-0.29-0.319-0.44 -0.021-0.02-0.03-0.04-0.051-0.06 -1.71-2.23-3.46-4.42-5.149-6.66 -0.07-0.09-0.141-0.181-0.21-0.271 -0.65-0.859-1.29-1.729-1.91-2.609 -2.851-4.04-5.561-8.181-8.25-12.33 0.1-1.46 0.28-2.91 0.42-4.37 0.18 0.11 0.37 0.21 0.55 0.32 2.45 1.43 4.84 2.97 7.061 4.739 4.069 3.24 7.569 6.99 11.1 10.771 0.01 0.01 0.02 0.03 0.03 0.04 0.29 0.31 0.58 0.62 0.87 0.93 3.14 3.35 6.3 6.68 9.6 9.88 2 1.94 4.09 3.78 6.15 5.66 -0.36 0.44-0.71 0.88-1.061 1.33 -1.56 2.02-2.88 4.27-4.25 6.42 -1.189 1.96-2.32 3.94-3.39 5.96 -0.08 0.14-0.15 0.28-0.22 0.42 0.369 0.07 0.739 0.141 1.109 0.2 2.8 0.51 5.62 0.97 8.44 1.36 4.1 0.569 8.18 1.26 12.279 1.8 -0.229 0.43-0.439 0.859-0.649 1.29 -1.34 2.75-2.43 5.84-3.351 8.75 -1.699 5.359-3.06 10.72-4.06 16.26 1.01-2.63 1.94-5.28 2.87-7.93 0.99-2.84 1.8-5.761 2.83-8.59 1.16-3.211 2.29-6.431 3.41-9.65 0.069-0.19 0.13-0.37 0.199-0.561 -0.319-0.05-0.64-0.109-0.949-0.159 -4.15-0.75-8.29-1.521-12.471-2.11 -2.729-0.38-5.479-0.69-8.229-0.96 2.81-4.36 5.47-8.81 8.13-13.26 0.1-0.181 0.21-0.351 0.31-0.521 -0.159-0.2-0.33-0.39-0.51-0.58 -2.01-2.25-4.109-4.439-6.149-6.68 -2.16-2.38-4.37-4.72-6.591-7.05 6.46 2.38 12.95 4.66 19.381 7.109 4.77 1.82 9.3 4.23 13.85 6.54 2.03 1.021 4.11 2 6.16 3.04 0.24 0.11 0.479 0.23 0.71 0.351 0.149 0.08 0.29 0.149 0.43 0.229 -0.57 2.19-1.38 4.29-2.11 6.431 -1.05 3.08-1.88 6.22-2.779 9.35 -0.37 1.27-0.75 2.54-1.16 3.8 -1.37 4.17-2.66 8.32-3.73 12.59 -0.93 3.7-1.859 7.41-2.779 11.11 2.979-7.91 5.47-15.97 8.08-24.01 1.409-4.34 2.47-8.771 3.68-13.17 0.53-1.931 1.03-3.84 1.4-5.79 0.029-0.15 0.06-0.3 0.09-0.46 0.229 0.02 0.449 0.05 0.67 0.1 0.59 0.1 1.149 0.271 1.689 0.49 1.36 0.56 2.311 1.71 3.011 3.07 0.02 0.029 0.029 0.06 0.05 0.09 0.79 1.56 1.25 3.38 1.63 4.859 2.66 10.36 1.72 21.28 0.75 31.78 -0.17 1.85-0.33 3.69-0.48 5.54C192.839 238.716 191.409 238.705 189.979 238.695z" fill="#a00047" stroke-width="none" opacity="1"></path></g><g id="svga-group-head" ><g id="svga-group-ears-left" style="display:none;"><path id="SvgjsPath3185" d="M45.443 81.864c-1.469-2.399-6.648-7.441-10.31-6.519 -2.979 0.752-6.032 3.199-6.032 7.37 -0.001 6.462 1.496 9.209 2.501 12.141 0.856 2.495 3.915 7.068 5.761 8.841 2.273 2.179 5.957 9.221 6.404 9.941 0.705 1.137 1.877 2.946 4.043 3.014 3.29 0.103 7.085-2.077 7.323-3.44C56.42 105.816 49.263 88.107 45.443 81.864z" fill="#ecc4b8" stroke="#be725b" stroke-width="1.5" opacity="1"></path><path id="SvgjsPath3186" d="M43.596 98.002c-0.142-0.549 0.007-1.474 0.152-2.367 0.131-0.814 0.255-1.583 0.18-2.126 -0.285-2.036-1.892-5.906-2.942-8.003 -1.208-2.412-4.117-5.452-6.568-6.235 -1.013-0.325-1.681 0.063-2.067 0.456 -0.284 0.289-0.347 0.628-0.254 0.668 0.093 0.04 0.304-0.241 0.61-0.505 0.25-0.217 0.617-0.402 1.122-0.364 -0.203 1.014-3.138 4.164-1.381 10.249 0.822 2.849 1.992 5.143 2.202 5.473 0.032 0.347 0.083 0.687 0.159 1.016 0.991 4.297 7.286 11.382 8.785 12.981 0.277 0.296 0.567 0.471 0.639 0.4 0.072-0.071-0.1-0.363-0.376-0.661 -1.48-1.589-7.734-8.657-8.69-12.803 -1.754-7.595 1.916-7.723 4.499-12.3 0.397 0.647 0.733 1.27 0.993 1.789 0.203 0.407 0.429 0.883 0.661 1.398 -0.458 0.719-5.059 5.972-3.889 10.175 0.433 1.55 3.779 3.548 5.073 4.096 0.712 0.302 0.979 0.752 1.289 1.273 0.359 0.605 0.767 2.758 1.95 3.254 0.241 0.101 0.458 0.143 0.651 0.143 0.334 0 0.587-0.126 0.774-0.276 0.019 0.264 0.018 0.604 0.008 0.917 -0.011 0.405 0.046 0.738 0.147 0.746s0.208-0.313 0.221-0.717c0.016-0.497 0.014-1.112-0.077-1.407 -0.265-0.867-1.076-1.845-1.934-2.88C44.688 101.372 43.815 98.852 43.596 98.002zM34.616 94.192c-2.322-6.746 0.993-12.568 1.514-13.495 0.908 0.776 2.662 1.815 3.314 2.83C36.33 88.848 34.811 85.147 34.616 94.192zM45.884 105.528c-1.072-0.449-1.431-2.52-1.778-3.104 -0.314-0.528-0.639-1.074-1.461-1.423 -0.179-0.076-0.376-0.191-0.578-0.324 -3.861-5.679 0.291-8.507 1.027-9.037 0.226 0.724 0.396 1.387 0.47 1.919 0.068 0.489-0.058 1.266-0.179 2.017 -0.15 0.931-0.306 1.894-0.145 2.518 0.24 0.928 1.14 3.481 2.01 4.531 0.772 0.933 1.564 1.893 1.835 2.676C46.97 105.458 46.604 105.83 45.884 105.528z" fill="#be725b" stroke-width="none" opacity="1"></path></g><g id="svga-group-ears-right" style="display:none;"><path id="SvgjsPath3187" d="M154.295 81.864c1.469-2.399 6.648-7.441 10.311-6.519 2.979 0.752 6.031 3.199 6.031 7.37 0.002 6.462-1.496 9.209-2.5 12.141 -0.857 2.495-3.916 7.068-5.762 8.841 -2.273 2.179-5.957 9.221-6.404 9.941 -0.705 1.137-1.877 2.946-4.043 3.014 -3.291 0.103-7.086-2.077-7.324-3.44C143.318 105.816 150.475 88.107 154.295 81.864z" fill="#ecc4b8" stroke="#be725b" stroke-width="1.5" opacity="1"></path><path id="SvgjsPath3188" d="M154.205 102.391c-0.857 1.036-1.668 2.013-1.934 2.88 -0.09 0.295-0.092 0.91-0.076 1.407 0.014 0.404 0.119 0.725 0.221 0.717s0.158-0.341 0.146-0.746c-0.01-0.313-0.01-0.653 0.01-0.917 0.186 0.15 0.439 0.276 0.773 0.276 0.193 0 0.41-0.042 0.65-0.143 1.184-0.496 1.592-2.649 1.951-3.254 0.311-0.521 0.576-0.971 1.289-1.273 1.293-0.548 4.639-2.545 5.072-4.096 1.17-4.204-3.432-9.456-3.889-10.175 0.232-0.515 0.457-0.991 0.66-1.398 0.26-0.519 0.596-1.141 0.994-1.789 2.582 4.577 6.252 4.705 4.498 12.3 -0.957 4.146-7.209 11.214-8.689 12.803 -0.275 0.298-0.447 0.59-0.377 0.661 0.072 0.07 0.361-0.104 0.639-0.4 1.5-1.6 7.795-8.685 8.785-12.981 0.076-0.33 0.129-0.669 0.16-1.016 0.209-0.33 1.379-2.624 2.201-5.473 1.758-6.085-1.178-9.235-1.381-10.249 0.504-0.039 0.871 0.147 1.123 0.364 0.305 0.265 0.518 0.545 0.609 0.505 0.094-0.041 0.029-0.379-0.254-0.668 -0.387-0.393-1.055-0.781-2.068-0.456 -2.451 0.783-5.359 3.823-6.568 6.235 -1.049 2.097-2.656 5.967-2.941 8.003 -0.074 0.544 0.049 1.313 0.18 2.126 0.145 0.894 0.293 1.818 0.152 2.367C155.924 98.852 155.051 101.372 154.205 102.391zM160.295 83.528c0.652-1.015 2.406-2.054 3.313-2.83 0.521 0.926 3.836 6.749 1.516 13.495C164.928 85.147 163.408 88.848 160.295 83.528zM152.652 105.301c0.271-0.783 1.064-1.743 1.836-2.676 0.869-1.05 1.77-3.603 2.01-4.531 0.16-0.624 0.006-1.586-0.145-2.518 -0.121-0.751-0.248-1.528-0.18-2.017 0.074-0.532 0.244-1.195 0.471-1.919 0.734 0.53 4.887 3.358 1.025 9.037 -0.201 0.133-0.398 0.248-0.578 0.324 -0.822 0.349-1.146 0.895-1.461 1.423 -0.346 0.584-0.705 2.655-1.777 3.104C153.135 105.83 152.768 105.458 152.652 105.301z" fill="#be725b" stroke-width="none" opacity="1"></path></g><g id="svga-group-faceshape-wrap" ><g id="svga-group-faceshape-single" ><path id="SvgjsPath2935" d="M144.004 125.052c-6.87 10.737-23.072 30.026-34.468 34.218 -4.474 1.646-14.594 1.646-19.067 0 -11.396-4.192-27.596-23.481-34.467-34.218 -6.753-10.551-14.852-47.803-14.863-47.856 -1.3-4.912-1.996-10.066-2.004-15.382C39.082 28.339 66.289 1.168 99.907 1.116c33.621-0.052 60.913 27.032 60.963 60.506 0.009 5.316-0.669 10.473-1.952 15.389C158.901 77.063 150.78 114.46 144.004 125.052z" fill="#ecc4b8" stroke-width="none" opacity="1" stroke="none"></path><path id="SvgjsPath2936" d="M110.152 1.969c26.994 6.24 47.097 30.337 47.052 59.111 -0.009 5.315-0.704 10.471-2.004 15.382 -0.012 0.053-7.377 37.307-14.13 47.856 -6.872 10.735-22.339 29.292-33.734 33.484 -1.476 0.544-5.027 1.092-7.334 1.092 -2.307 0-5.857-0.548-7.333-1.092 -11.396-4.192-26.863-22.749-33.734-33.484 -6.753-10.55-14.119-47.803-14.13-47.856 -1.3-4.911-1.996-10.066-2.004-15.382C42.756 32.307 62.857 8.209 89.853 1.969 61.03 6.788 39.087 31.751 39.134 61.813c0.008 5.315 0.704 10.47 2.004 15.382 0.012 0.053 8.11 37.306 14.863 47.856 6.871 10.736 23.072 30.025 34.467 34.218 2.239 0.824 5.889 1.235 9.537 1.232 3.646 0.001 7.292-0.408 9.53-1.232 11.396-4.192 27.596-23.481 34.468-34.218 6.753-10.551 14.852-47.803 14.862-47.856 1.3-4.912 1.996-10.066 2.004-15.382C160.918 31.751 138.975 6.788 110.152 1.969z" fill="#e4b5a7" stroke-width="none" opacity="1" stroke="none"></path><path id="SvgjsPath2937" d="M144.004 125.052c-6.87 10.737-23.072 30.026-34.468 34.218 -4.474 1.646-14.594 1.646-19.067 0 -11.396-4.192-27.596-23.481-34.467-34.218 -6.753-10.551-14.852-47.803-14.863-47.856 -1.3-4.912-1.996-10.066-2.004-15.382C39.082 28.339 66.289 1.168 99.907 1.116c33.621-0.052 60.913 27.032 60.963 60.506 0.009 5.316-0.669 10.473-1.952 15.389C158.901 77.063 150.78 114.46 144.004 125.052z" fill="none" stroke="#be725b" stroke-width="1.5" opacity="1"></path></g></g><g id="svga-group-mouth-single" ><path id="SvgjsPath2959" d="M99.867 141.087c-4.159 0-7.258-4.297-7.258-4.297 7.261 3.32 14.915 0 14.915 0S103.516 141.087 99.867 141.087z" fill="url(#SvgjsLinearGradient2960)" opacity="1"></path><path id="SvgjsPath2963" d="M112.127 131.943c0 0.625-7.773 3.456-12.258 3.575 -4.18 0.112-12.333-2.682-12.333-3.575 0-0.892 6.441-1.558 12.729-1.558C106.555 130.386 112.127 131.052 112.127 131.943z" fill="#ffffff" stroke-width="none" opacity="1"></path><path id="SvgjsPath2964" d="M95.441 127.853c0.99-0.131 2.728 0.908 4.824 0.909 1.541 0.002 3.426-1.067 4.612-0.909 2.529 0.341 3.857 1.882 10.491 2.47 0 0-3.22 1.083-4.075 1.15 -2.72 0.216-7.215-0.169-11.287-0.181 -4.556-0.02-8.941 0.43-11.697 0.301 -0.994-0.051-3.941-1.137-3.941-1.137C89.901 130.196 92.547 128.235 95.441 127.853zM84.369 130.818c0 0 4.514 3.538 6.253 4.76 2.007 1.411 5.029 3.623 9.474 3.557 3.563-0.058 6.641-1.816 8.477-2.986 1.978-1.259 6.796-5.463 6.796-5.463 -2.77 0.633-2.77 0.633-4.075 1.149 -2.741 1.084-7.477 2.722-11.173 2.722 -4.563 0-8.936-1.639-11.811-2.603C86.315 131.286 84.369 130.818 84.369 130.818z" fill="#c90433" stroke="#ba002c" stroke-width="0.75" opacity="1"></path><path id="SvgjsPath2965" d="M115.592 130.572c-0.458 0.663-2.14 0.715-2.888 0.977 -1.098 0.383-2.162 0.856-3.259 1.245 -2.693 0.954-5.51 1.792-8.375 1.98 -5.336 0.351-10.599-1.808-15.596-3.41 -0.424-0.136-0.994-0.175-1.359-0.449 -0.326-0.244-0.015-0.768 0.336-0.701 1.051 0.199 2.092 0.731 3.141 0.994 1.224 0.308 2.583 0.16 3.832 0.113 1.592-0.059 3.184-0.146 4.777-0.207 2.927-0.109 5.842-0.053 8.768 0.059 2.621 0.101 5.366 0.402 7.915-0.332 0.688-0.199 1.379-0.399 2.047-0.656C115.179 130.09 115.94 130.07 115.592 130.572 115.415 130.828 115.632 130.515 115.592 130.572zM108.39 131.773c-3.415 0.013-6.822-0.286-10.24-0.217 -1.874 0.038-3.745 0.139-5.617 0.219 -0.566 0.024-1.625-0.143-2.11 0.204 -0.466 0.334 1.182 0.807 1.325 0.852 3.306 1.039 6.829 1.78 10.304 1.346 1.704-0.214 3.382-0.632 5.023-1.13 0.64-0.195 1.439-0.341 1.987-0.743C109.635 131.883 108.656 131.773 108.39 131.773 107.333 131.777 109.492 131.771 108.39 131.773z" fill="#9b0025" stroke-width="none" opacity="1"></path><path id="SvgjsPath2966" d="M99.901 138.136c-4.165 0-7.465-2.404-10.634-4.801 7.714 2.61 14.222 2.572 21.819-0.346C107.874 135.609 104.215 138.095 99.901 138.136zM93.601 130.478c5.567-0.262 11.102 0.228 16.657 0.047 -1.847-0.453-3.623-1.426-5.512-1.681 -1.452-0.142-2.984 0.918-4.481 0.918 -1.633-0.001-3.113-0.918-4.692-0.918 -2.024 0.27-3.923 1.229-5.881 1.771C90.996 130.593 92.299 130.547 93.601 130.478 95.469 130.39 92.18 130.543 93.601 130.478z" fill="#d81a47" stroke-width="none" opacity="1"></path><path id="SvgjsPath2967" d="M95.134 136.031c1.596 0.319 3.265 0.525 4.987 0.525 1.453 0 3.029-0.222 4.598-0.563 -1.384 0.624-2.973 1.132-4.654 1.141C98.283 137.145 96.471 136.67 95.134 136.031z" fill="#e8335e" stroke-width="none" opacity="1"></path></g><g id="svga-group-eyes-left" ><g id="svga-group-eyesback-left"><path id="SvgjsPath2985" d="M61.952 84.523c-0.506-2.285 5.191-3.973 12.711-3.051 7.518 0.923 12.738 5.524 12.052 7.844 -0.38 1.286-10.639 3.245-14.253 2.847C68.798 91.758 63.174 90.04 61.952 84.523z" fill="url(#SvgjsRadialGradient2986)" opacity="1"></path></g><g id="svga-group-eyesiriswrapper-left" transform="translate(-0.75 -0.5)"><g id="svga-group-eyesiriscontrol-left" ><g id="svga-group-eyesiris-left" ><path id="SvgjsPath3039" d="M83.5 87c0 4.694-3.806 8.5-8.499 8.5 -4.694 0-8.501-3.806-8.501-8.5l0 0c0-4.694 3.807-8.5 8.501-8.5C79.694 78.499 83.5 82.305 83.5 87L83.5 87z" fill="#7b5c33" stroke-width="none" opacity="1" stroke="none"></path><path id="SvgjsPath3040" d="M74.048 78.595c-0.033 0.004-0.066 0.008-0.101 0.012 0.041 0.191 0.081 0.384 0.12 0.575C74.06 78.987 74.055 78.789 74.048 78.595zM74.066 79.18c0.099 2.793 0.262 5.282 0.732 6.183C75.047 84.377 74.625 81.92 74.066 79.18zM74.8 85.365c-0.061 0.236-0.153 0.397-0.294 0.452 -0.142 0.053-0.319-0.008-0.521-0.146 0.058 0.236 0.052 0.422-0.051 0.537 -0.102 0.114-0.285 0.142-0.527 0.11 0.16 0.184 0.242 0.353 0.206 0.5 -0.039 0.148-0.189 0.258-0.415 0.343 0.225 0.088 0.376 0.199 0.411 0.347 0.036 0.148-0.046 0.315-0.205 0.498 0.241-0.029 0.426 0.001 0.525 0.115 0.101 0.114 0.106 0.301 0.05 0.537 0.199-0.137 0.376-0.197 0.518-0.142 0.143 0.053 0.234 0.216 0.291 0.454 0.114-0.215 0.243-0.353 0.396-0.368 0.148-0.02 0.307 0.084 0.466 0.267 0.002-0.244 0.053-0.423 0.181-0.51 0.124-0.086 0.311-0.069 0.537 0.018 -0.11-0.216-0.148-0.398-0.078-0.534 0.071-0.135 0.245-0.207 0.487-0.235 -0.199-0.14-0.321-0.283-0.318-0.436 -0.001-0.153 0.119-0.296 0.321-0.434 -0.241-0.03-0.412-0.103-0.484-0.237 -0.07-0.135-0.031-0.319 0.081-0.535 -0.229 0.085-0.413 0.102-0.538 0.016 -0.126-0.086-0.177-0.267-0.178-0.51 -0.158 0.182-0.316 0.282-0.468 0.262C75.041 85.714 74.911 85.58 74.8 85.365zM75.66 85.471c0.679-0.758 1.446-3.13 2.224-5.813C76.674 82.174 75.662 84.453 75.66 85.471zM77.883 79.657c0.085-0.172 0.172-0.348 0.253-0.524 -0.03-0.011-0.06-0.024-0.09-0.037C77.992 79.284 77.938 79.472 77.883 79.657zM76.377 85.965c0.953-0.357 2.736-2.101 4.671-4.115C78.808 83.517 76.851 85.065 76.377 85.965zM81.048 81.851c0.142-0.106 0.287-0.213 0.433-0.318 -0.021-0.025-0.043-0.047-0.06-0.07C81.297 81.59 81.174 81.722 81.048 81.851zM76.777 86.738c1.01 0.125 3.399-0.591 6.052-1.475C80.068 85.698 77.617 86.159 76.777 86.738zM82.829 85.263c0.156-0.022 0.318-0.048 0.478-0.073 -0.007-0.026-0.013-0.054-0.02-0.081C83.135 85.16 82.979 85.212 82.829 85.263zM76.775 87.606c0.836 0.583 3.284 1.057 6.038 1.505C80.171 88.214 77.786 87.484 76.775 87.606zM82.813 89.111c0.135 0.047 0.271 0.095 0.404 0.138 0.007-0.024 0.013-0.047 0.018-0.071C83.098 89.158 82.954 89.135 82.813 89.111zM76.367 88.375c0.471 0.902 2.42 2.462 4.649 4.142C79.092 90.492 77.32 88.737 76.367 88.375zM81.018 92.514c0.083 0.087 0.17 0.179 0.253 0.268 0.014-0.017 0.027-0.031 0.043-0.046C81.215 92.662 81.113 92.587 81.018 92.514zM75.652 88.867c-0.004 1.019 0.995 3.302 2.191 5.827C77.079 92.006 76.327 89.628 75.652 88.867zM77.844 94.694c0.03 0.106 0.062 0.215 0.09 0.324 0.021-0.008 0.036-0.015 0.055-0.02C77.941 94.896 77.892 94.793 77.844 94.694zM74.788 88.968c-0.476 0.902-0.653 3.386-0.768 6.178C74.594 92.413 75.031 89.958 74.788 88.968zM74.021 95.146c-0.023 0.106-0.044 0.214-0.066 0.323 0.02 0.004 0.035 0.005 0.055 0.007C74.013 95.368 74.018 95.254 74.021 95.146zM73.979 88.657c-0.844 0.576-2.154 2.697-3.553 5.114C72.204 91.617 73.733 89.645 73.979 88.657zM70.427 93.771c-0.074 0.09-0.152 0.185-0.229 0.274 0.018 0.012 0.034 0.02 0.053 0.034C70.309 93.976 70.369 93.873 70.427 93.771zM73.405 88.006c-1.015 0.119-3.16 1.385-5.522 2.875C70.46 89.801 72.726 88.768 73.405 88.006zM67.883 90.884c-0.122 0.051-0.247 0.102-0.372 0.156 0.009 0.019 0.021 0.038 0.033 0.057C67.658 91.027 67.771 90.954 67.883 90.884zM73.198 87.161c-0.951-0.365-3.441-0.238-6.227-0.016C69.755 87.383 72.244 87.521 73.198 87.161zM66.972 87.145c-0.151-0.014-0.308-0.028-0.457-0.041 -0.001 0.027-0.003 0.053-0.001 0.08C66.669 87.169 66.822 87.156 66.972 87.145zM73.407 86.318c-0.67-0.763-2.932-1.809-5.499-2.905C70.259 84.915 72.397 86.196 73.407 86.318zM67.908 83.413c-0.147-0.095-0.297-0.189-0.446-0.285 -0.013 0.026-0.026 0.053-0.041 0.078C67.585 83.276 67.75 83.344 67.908 83.413zM73.985 85.67c-0.239-0.989-1.758-2.967-3.521-5.132C71.849 82.963 73.147 85.09 73.985 85.67zM70.465 80.538c-0.095-0.163-0.188-0.329-0.281-0.494 -0.026 0.018-0.055 0.037-0.079 0.054C70.224 80.245 70.348 80.393 70.465 80.538z" fill="url(#SvgjsRadialGradient3041)" opacity="1"></path><path id="SvgjsPath3044" d="M76.255 78.622c-0.034-0.004-0.066-0.01-0.1-0.014 -0.011 0.196-0.022 0.393-0.034 0.586C76.164 79.004 76.211 78.812 76.255 78.622zM76.12 79.193c-0.627 2.724-1.114 5.17-0.892 6.162C75.724 84.467 75.95 81.984 76.12 79.193zM75.229 85.356c-0.119 0.212-0.25 0.344-0.401 0.36 -0.15 0.014-0.306-0.091-0.464-0.276 -0.006 0.243-0.06 0.421-0.188 0.505 -0.128 0.083-0.313 0.063-0.539-0.03 0.107 0.219 0.143 0.403 0.069 0.536 -0.075 0.133-0.249 0.201-0.489 0.224 0.194 0.144 0.312 0.289 0.308 0.441 -0.003 0.152-0.126 0.292-0.327 0.428 0.24 0.034 0.41 0.111 0.478 0.247 0.067 0.136 0.025 0.318-0.091 0.532 0.229-0.081 0.414-0.093 0.537-0.003 0.123 0.088 0.17 0.27 0.164 0.514 0.166-0.177 0.325-0.278 0.478-0.253 0.148 0.02 0.274 0.16 0.382 0.379 0.064-0.236 0.16-0.396 0.306-0.447 0.143-0.051 0.318 0.014 0.515 0.157 -0.051-0.237-0.041-0.423 0.063-0.536s0.29-0.136 0.532-0.102c-0.157-0.187-0.238-0.356-0.195-0.504 0.039-0.148 0.192-0.255 0.423-0.336 -0.226-0.091-0.372-0.206-0.407-0.354 -0.032-0.149 0.053-0.316 0.218-0.495 -0.243 0.023-0.427-0.009-0.524-0.125 -0.099-0.115-0.102-0.303-0.039-0.538 -0.201 0.134-0.38 0.19-0.521 0.132C75.37 85.756 75.281 85.593 75.229 85.356zM76.033 85.683c0.852-0.558 2.206-2.65 3.652-5.04C77.865 82.76 76.298 84.699 76.033 85.683zM79.685 80.641c0.126-0.145 0.255-0.292 0.38-0.44 -0.027-0.019-0.052-0.04-0.078-0.06C79.886 80.31 79.785 80.477 79.685 80.641zM76.597 86.345c1.013-0.099 3.187-1.322 5.577-2.767C79.578 84.609 77.287 85.598 76.597 86.345zM82.173 83.579c0.165-0.065 0.333-0.131 0.501-0.195 -0.014-0.029-0.029-0.056-0.04-0.083C82.481 83.392 82.328 83.487 82.173 83.579zM76.783 87.194c0.943 0.382 3.437 0.309 6.227 0.142C80.231 87.042 77.745 86.853 76.783 87.194zM83.01 87.336c0.158 0.019 0.32 0.036 0.48 0.053 0.001-0.027 0.002-0.055 0.003-0.083C83.332 87.316 83.168 87.326 83.01 87.336zM76.558 88.033c0.655 0.78 2.898 1.871 5.442 3.017C79.679 89.499 77.565 88.177 76.558 88.033zM82 91.049c0.117 0.08 0.236 0.161 0.354 0.238 0.013-0.021 0.024-0.042 0.035-0.063C82.262 91.168 82.129 91.109 82 91.049zM75.964 88.67c0.221 0.993 1.699 3.004 3.419 5.205C78.048 91.419 76.791 89.266 75.964 88.67zM79.384 93.872c0.059 0.106 0.117 0.217 0.176 0.325 0.018-0.013 0.034-0.023 0.053-0.034C79.536 94.065 79.458 93.967 79.384 93.872zM75.146 88.96c-0.267 0.982 0.107 3.447 0.608 6.195C75.711 92.361 75.601 89.87 75.146 88.96zM75.754 95.155c0.002 0.11 0.004 0.224 0.004 0.337 0.021-0.003 0.038-0.005 0.058-0.005C75.796 95.376 75.775 95.264 75.754 95.155zM74.285 88.834c-0.693 0.748-1.508 3.102-2.341 5.769C73.205 92.11 74.265 89.853 74.285 88.834zM71.944 94.603c-0.05 0.096-0.099 0.195-0.147 0.295 0.017 0.008 0.032 0.013 0.051 0.021C71.879 94.815 71.913 94.707 71.944 94.603zM73.584 88.324c-0.964 0.338-2.779 2.048-4.756 4.021C71.104 90.724 73.091 89.215 73.584 88.324zM68.828 92.345c-0.095 0.067-0.194 0.138-0.29 0.206 0.014 0.016 0.027 0.028 0.041 0.045C68.661 92.511 68.746 92.428 68.828 92.345zM73.197 87.546c-1.01-0.148-3.409 0.521-6.078 1.349C69.889 88.518 72.345 88.106 73.197 87.546zM67.119 88.897c-0.131 0.018-0.265 0.034-0.4 0.054 0.005 0.021 0.011 0.042 0.018 0.063C66.865 88.977 66.993 88.936 67.119 88.897zM73.217 86.677c-0.824-0.599-3.263-1.121-6.01-1.627C69.833 86 72.202 86.777 73.217 86.677zM67.207 85.05c-0.143-0.052-0.29-0.106-0.432-0.158 -0.008 0.026-0.016 0.051-0.021 0.077C66.907 84.995 67.06 85.022 67.207 85.05zM73.637 85.917c-0.45-0.911-2.363-2.506-4.561-4.23C70.959 83.747 72.693 85.538 73.637 85.917zM69.076 81.688c-0.118-0.13-0.236-0.26-0.355-0.391 -0.021 0.022-0.041 0.044-0.061 0.065C68.8 81.471 68.941 81.58 69.076 81.688zM74.363 85.44c0.024-1.017-0.93-3.321-2.073-5.868C72.999 82.273 73.704 84.663 74.363 85.44zM72.29 79.572c-0.049-0.182-0.096-0.366-0.144-0.55 -0.029 0.01-0.062 0.021-0.09 0.032C72.134 79.227 72.214 79.401 72.29 79.572z" fill="url(#SvgjsRadialGradient3045)" opacity="1"></path><path id="SvgjsPath3048" d="M78.334 87c0 1.842-1.492 3.333-3.333 3.333S71.666 88.841 71.666 87c0-1.841 1.494-3.334 3.335-3.334C76.844 83.666 78.334 85.159 78.334 87z" fill="#7b5c33" stroke-width="none" opacity="1" stroke="none"></path><path id="SvgjsPath3049" d="M78.334 87c0 1.842-1.492 3.333-3.333 3.333S71.666 88.841 71.666 87c0-1.841 1.494-3.334 3.335-3.334C76.844 83.666 78.334 85.159 78.334 87z" fill="#000000" stroke-width="none" opacity="0.9"></path><path id="SvgjsPath3050" d="M70.35 90.893c0.636-0.427 1.5-0.255 1.927 0.38 0.427 0.637 0.258 1.5-0.379 1.927 -0.638 0.429-1.5 0.258-1.927-0.378C69.544 92.185 69.713 91.32 70.35 90.893L70.35 90.893z" fill="url(#SvgjsLinearGradient3051)" opacity="0.5"></path><path id="SvgjsPath3054" d="M77.635 86.536c-0.356 0.53-1.373 0.468-2.275-0.136 -0.903-0.605-1.346-1.526-0.991-2.055l0.001-0.001c0.354-0.53 1.372-0.469 2.274 0.137 0.903 0.604 1.346 1.524 0.992 2.054C77.635 86.536 77.635 86.536 77.635 86.536z" fill="url(#SvgjsLinearGradient3055)" opacity="0.5"></path><path id="SvgjsPath3058" d="M81.682 85.121c-0.806 1.237-2.884 1.31-4.641 0.166 -1.756-1.145-2.527-3.075-1.722-4.311 0.806-1.235 2.884-1.31 4.641-0.166C81.715 81.956 82.485 83.887 81.682 85.121L81.682 85.121z" fill="url(#SvgjsLinearGradient3059)" opacity="0.75"></path></g></g></g><g id="svga-group-eyesfront-left"><path id="SvgjsPath3007" d="M55.5 88c0 13.807 8.06 24.999 18 24.999s18-11.192 18-24.999c0-13.808-8.06-25-18-25S55.5 74.192 55.5 88zM61.952 84.523c-0.506-2.285 5.191-3.973 12.711-3.051 7.518 0.923 12.738 5.524 12.052 7.844 -0.38 1.286-10.639 3.245-14.253 2.847C68.798 91.758 63.174 90.04 61.952 84.523z" fill="#ecc4b8" stroke-width="none" opacity="1"></path><path id="SvgjsPath3008" d="M72.462 92.163c3.614 0.398 13.873-1.561 14.253-2.847 0.687-2.32-4.534-6.921-12.052-7.844 -6.46-0.792-11.563 0.345-12.556 2.128 0.898-6.4 7.7-11.397 15.987-11.434 8.911-0.037 16.148 5.676 16.172 12.765 0.021 7.088-7.185 12.862-16.095 12.902 -8.913 0.037-16.149-5.676-16.173-12.764 0-0.105 0.016-0.208 0.019-0.313C63.348 90.083 68.852 91.764 72.462 92.163z" fill="url(#SvgjsRadialGradient3009)" opacity="1"></path><path id="SvgjsPath3013" d="M61.952 84.523c-0.506-2.285 5.191-3.973 12.711-3.051 7.518 0.923 12.738 5.524 12.052 7.844 -0.38 1.286-10.639 3.245-14.253 2.847C68.798 91.758 63.174 90.04 61.952 84.523z" fill="url(#SvgjsRadialGradient3014)" opacity="1"></path><path id="SvgjsPath3017" d="M62.349 79.417c4.208-1.978 9.35-2.16 13.838-1.005 2.404 0.561 4.965 1.285 7.063 2.638 1.945 1.135 3.525 2.5 5.002 4.19 -1.342-1.701-2.773-3.118-4.623-4.27 -2.276-1.416-4.769-2.294-7.364-2.916C71.678 76.928 66.542 77.184 62.349 79.417z" fill="#be725b" stroke-width="none" opacity="1"></path><path id="SvgjsPath3018" d="M57.318 80.972c0 0 2.328 0.881 3.595 0.62 -0.39-0.459-1.096-1.604-1.096-1.604s1.853 0.551 3.151 0.032c0.88-0.352 4.065-1 5.456-1.066 1.687-0.082 5.073 0.125 6.735 0.424 3.374 0.608 8.985 2.63 11.678 7.184 0.255 0.572 1.407 0.921 1.407 0.921s-1.02-0.215-1.149 0.042c-0.282 0.561 1.298 2.016 1.496 2.197 -0.161-0.145-1.289-1.135-1.722-0.967 -0.061 0.022-0.137 0.388-0.155 0.482 0.3-2.426-4.838-6.746-12.052-7.604 -7.52-0.894-13.217 0.743-12.711 2.958 1.222 5.348 6.846 7.013 10.51 7.405 2.526 0.271 8.298-0.577 11.675-1.537l1.011-0.317c-1.999 1.009-7.524 2.195-9.767 2.403 -0.744 0.07-2.24 0.104-2.986 0.085 -5.949-0.158-10.16-3.179-11.729-7.26 -0.125-0.328-0.494-0.619-0.838-0.696 -1.604-0.361-5.096-1.811-5.096-1.811 2.32 0.361 3.483 0.674 5.305 0.059C58.257 82.256 57.318 80.972 57.318 80.972z" fill="#000000" stroke-width="none" opacity="1"></path></g></g><g id="svga-group-eyes-right" ><g id="svga-group-eyesback-right"><path id="SvgjsPath2992" d="M138.048 84.523c0.506-2.285-5.191-3.973-12.711-3.051 -7.518 0.923-12.738 5.524-12.052 7.844 0.38 1.286 10.639 3.245 14.253 2.847C131.202 91.758 136.826 90.04 138.048 84.523z" fill="url(#SvgjsRadialGradient2993)" opacity="1"></path></g><g id="svga-group-eyesiriswrapper-right" transform="translate(0.75 -0.5)"><g id="svga-group-eyesiriscontrol-right" ><g id="svga-group-eyesiris-right" ><path id="SvgjsPath3062" d="M133.5 87c0 4.694-3.806 8.5-8.499 8.5 -4.694 0-8.501-3.806-8.501-8.5l0 0c0-4.694 3.807-8.5 8.501-8.5C129.694 78.499 133.5 82.305 133.5 87L133.5 87z" fill="#7b5c33" stroke-width="none" opacity="1" stroke="none"></path><path id="SvgjsPath3063" d="M124.048 78.595c-0.033 0.004-0.066 0.008-0.101 0.012 0.041 0.191 0.081 0.384 0.12 0.575C124.06 78.987 124.055 78.789 124.048 78.595zM124.066 79.18c0.099 2.793 0.262 5.282 0.732 6.183C125.047 84.377 124.625 81.92 124.066 79.18zM124.8 85.365c-0.061 0.236-0.153 0.397-0.294 0.452 -0.142 0.053-0.319-0.008-0.521-0.146 0.058 0.236 0.052 0.422-0.051 0.537 -0.102 0.114-0.285 0.142-0.527 0.11 0.16 0.184 0.242 0.353 0.206 0.5 -0.039 0.148-0.189 0.258-0.415 0.343 0.225 0.088 0.376 0.199 0.411 0.347 0.036 0.148-0.046 0.315-0.205 0.498 0.241-0.029 0.426 0.001 0.525 0.115 0.101 0.114 0.106 0.301 0.05 0.537 0.199-0.137 0.376-0.197 0.518-0.142 0.143 0.053 0.234 0.216 0.291 0.454 0.114-0.215 0.243-0.353 0.396-0.368 0.148-0.02 0.307 0.084 0.466 0.267 0.002-0.244 0.053-0.423 0.181-0.51 0.124-0.086 0.311-0.069 0.537 0.018 -0.11-0.216-0.148-0.398-0.078-0.534 0.071-0.135 0.245-0.207 0.487-0.235 -0.199-0.14-0.321-0.283-0.318-0.436 -0.001-0.153 0.119-0.296 0.321-0.434 -0.241-0.03-0.412-0.103-0.484-0.237 -0.07-0.135-0.031-0.319 0.081-0.535 -0.229 0.085-0.413 0.102-0.538 0.016 -0.126-0.086-0.177-0.267-0.178-0.51 -0.158 0.182-0.316 0.282-0.468 0.262C125.041 85.714 124.911 85.58 124.8 85.365zM125.66 85.471c0.679-0.758 1.446-3.13 2.224-5.813C126.674 82.174 125.662 84.453 125.66 85.471zM127.883 79.657c0.085-0.172 0.172-0.348 0.253-0.524 -0.03-0.011-0.06-0.024-0.09-0.037C127.992 79.284 127.938 79.472 127.883 79.657zM126.377 85.965c0.953-0.357 2.736-2.101 4.671-4.115C128.808 83.517 126.851 85.065 126.377 85.965zM131.048 81.851c0.142-0.106 0.287-0.213 0.433-0.318 -0.021-0.025-0.043-0.047-0.06-0.07C131.297 81.59 131.174 81.722 131.048 81.851zM126.777 86.738c1.01 0.125 3.399-0.591 6.052-1.475C130.068 85.698 127.617 86.159 126.777 86.738zM132.829 85.263c0.156-0.022 0.318-0.048 0.478-0.073 -0.007-0.026-0.013-0.054-0.02-0.081C133.135 85.16 132.979 85.212 132.829 85.263zM126.775 87.606c0.836 0.583 3.284 1.057 6.038 1.505C130.171 88.214 127.786 87.484 126.775 87.606zM132.813 89.111c0.135 0.047 0.271 0.095 0.404 0.138 0.007-0.024 0.013-0.047 0.018-0.071C133.098 89.158 132.954 89.135 132.813 89.111zM126.367 88.375c0.471 0.902 2.42 2.462 4.649 4.142C129.092 90.492 127.32 88.737 126.367 88.375zM131.018 92.514c0.083 0.087 0.17 0.179 0.253 0.268 0.014-0.017 0.027-0.031 0.043-0.046C131.215 92.662 131.113 92.587 131.018 92.514zM125.652 88.867c-0.004 1.019 0.995 3.302 2.191 5.827C127.079 92.006 126.327 89.628 125.652 88.867zM127.844 94.694c0.03 0.106 0.062 0.215 0.09 0.324 0.021-0.008 0.036-0.015 0.055-0.02C127.941 94.896 127.892 94.793 127.844 94.694zM124.788 88.968c-0.476 0.902-0.653 3.386-0.768 6.178C124.594 92.413 125.031 89.958 124.788 88.968zM124.021 95.146c-0.023 0.106-0.044 0.214-0.066 0.323 0.02 0.004 0.035 0.005 0.055 0.007C124.013 95.368 124.018 95.254 124.021 95.146zM123.979 88.657c-0.844 0.576-2.154 2.697-3.553 5.114C122.204 91.617 123.733 89.645 123.979 88.657zM120.427 93.771c-0.074 0.09-0.152 0.185-0.229 0.274 0.018 0.012 0.034 0.02 0.053 0.034C120.309 93.976 120.369 93.873 120.427 93.771zM123.405 88.006c-1.015 0.119-3.16 1.385-5.522 2.875C120.46 89.801 122.726 88.768 123.405 88.006zM117.883 90.884c-0.122 0.051-0.247 0.102-0.372 0.156 0.009 0.019 0.021 0.038 0.033 0.057C117.658 91.027 117.771 90.954 117.883 90.884zM123.198 87.161c-0.951-0.365-3.441-0.238-6.227-0.016C119.755 87.383 122.244 87.521 123.198 87.161zM116.972 87.145c-0.151-0.014-0.308-0.028-0.457-0.041 -0.001 0.027-0.003 0.053-0.001 0.08C116.669 87.169 116.822 87.156 116.972 87.145zM123.407 86.318c-0.67-0.763-2.932-1.809-5.499-2.905C120.259 84.915 122.397 86.196 123.407 86.318zM117.908 83.413c-0.147-0.095-0.297-0.189-0.446-0.285 -0.013 0.026-0.026 0.053-0.041 0.078C117.585 83.276 117.75 83.344 117.908 83.413zM123.985 85.67c-0.239-0.989-1.758-2.967-3.521-5.132C121.849 82.963 123.147 85.09 123.985 85.67zM120.465 80.538c-0.095-0.163-0.188-0.329-0.281-0.494 -0.026 0.018-0.055 0.037-0.079 0.054C120.224 80.245 120.348 80.393 120.465 80.538z" fill="url(#SvgjsRadialGradient3064)" opacity="1"></path><path id="SvgjsPath3067" d="M126.255 78.622c-0.034-0.004-0.066-0.01-0.1-0.014 -0.011 0.196-0.022 0.393-0.034 0.586C126.164 79.004 126.211 78.812 126.255 78.622zM126.12 79.193c-0.627 2.724-1.114 5.17-0.892 6.162C125.724 84.467 125.95 81.984 126.12 79.193zM125.229 85.356c-0.119 0.212-0.25 0.344-0.401 0.36 -0.15 0.014-0.306-0.091-0.464-0.276 -0.006 0.243-0.06 0.421-0.188 0.505 -0.128 0.083-0.313 0.063-0.539-0.03 0.107 0.219 0.143 0.403 0.069 0.536 -0.075 0.133-0.249 0.201-0.489 0.224 0.194 0.144 0.312 0.289 0.308 0.441 -0.003 0.152-0.126 0.292-0.327 0.428 0.24 0.034 0.41 0.111 0.478 0.247 0.067 0.136 0.025 0.318-0.091 0.532 0.229-0.081 0.414-0.093 0.537-0.003 0.123 0.088 0.17 0.27 0.164 0.514 0.166-0.177 0.325-0.278 0.478-0.253 0.148 0.02 0.274 0.16 0.382 0.379 0.064-0.236 0.16-0.396 0.306-0.447 0.143-0.051 0.318 0.014 0.515 0.157 -0.051-0.237-0.041-0.423 0.063-0.536s0.29-0.136 0.532-0.102c-0.157-0.187-0.238-0.356-0.195-0.504 0.039-0.148 0.192-0.255 0.423-0.336 -0.226-0.091-0.372-0.206-0.407-0.354 -0.032-0.149 0.053-0.316 0.218-0.495 -0.243 0.023-0.427-0.009-0.524-0.125 -0.099-0.115-0.102-0.303-0.039-0.538 -0.201 0.134-0.38 0.19-0.521 0.132C125.37 85.756 125.281 85.593 125.229 85.356zM126.033 85.683c0.852-0.558 2.206-2.65 3.652-5.04C127.865 82.76 126.298 84.699 126.033 85.683zM129.685 80.641c0.126-0.145 0.255-0.292 0.38-0.44 -0.027-0.019-0.052-0.04-0.078-0.06C129.886 80.31 129.785 80.477 129.685 80.641zM126.597 86.345c1.013-0.099 3.187-1.322 5.577-2.767C129.578 84.609 127.287 85.598 126.597 86.345zM132.173 83.579c0.165-0.065 0.333-0.131 0.501-0.195 -0.014-0.029-0.029-0.056-0.04-0.083C132.481 83.392 132.328 83.487 132.173 83.579zM126.783 87.194c0.943 0.382 3.437 0.309 6.227 0.142C130.231 87.042 127.745 86.853 126.783 87.194zM133.01 87.336c0.158 0.019 0.32 0.036 0.48 0.053 0.001-0.027 0.002-0.055 0.003-0.083C133.332 87.316 133.168 87.326 133.01 87.336zM126.558 88.033c0.655 0.78 2.898 1.871 5.442 3.017C129.679 89.499 127.565 88.177 126.558 88.033zM132 91.049c0.117 0.08 0.236 0.161 0.354 0.238 0.013-0.021 0.024-0.042 0.035-0.063C132.262 91.168 132.129 91.109 132 91.049zM125.964 88.67c0.221 0.993 1.699 3.004 3.419 5.205C128.048 91.419 126.791 89.266 125.964 88.67zM129.384 93.872c0.059 0.106 0.117 0.217 0.176 0.325 0.018-0.013 0.034-0.023 0.053-0.034C129.536 94.065 129.458 93.967 129.384 93.872zM125.146 88.96c-0.267 0.982 0.107 3.447 0.608 6.195C125.711 92.361 125.601 89.87 125.146 88.96zM125.754 95.155c0.002 0.11 0.004 0.224 0.004 0.337 0.021-0.003 0.038-0.005 0.058-0.005C125.796 95.376 125.775 95.264 125.754 95.155zM124.285 88.834c-0.693 0.748-1.508 3.102-2.341 5.769C123.205 92.11 124.265 89.853 124.285 88.834zM121.944 94.603c-0.05 0.096-0.099 0.195-0.147 0.295 0.017 0.008 0.032 0.013 0.051 0.021C121.879 94.815 121.913 94.707 121.944 94.603zM123.584 88.324c-0.964 0.338-2.779 2.048-4.756 4.021C121.104 90.724 123.091 89.215 123.584 88.324zM118.828 92.345c-0.095 0.067-0.194 0.138-0.29 0.206 0.014 0.016 0.027 0.028 0.041 0.045C118.661 92.511 118.746 92.428 118.828 92.345zM123.197 87.546c-1.01-0.148-3.409 0.521-6.078 1.349C119.889 88.518 122.345 88.106 123.197 87.546zM117.119 88.897c-0.131 0.018-0.265 0.034-0.4 0.054 0.005 0.021 0.011 0.042 0.018 0.063C116.865 88.977 116.993 88.936 117.119 88.897zM123.217 86.677c-0.824-0.599-3.263-1.121-6.01-1.627C119.833 86 122.202 86.777 123.217 86.677zM117.207 85.05c-0.143-0.052-0.29-0.106-0.432-0.158 -0.008 0.026-0.016 0.051-0.021 0.077C116.907 84.995 117.06 85.022 117.207 85.05zM123.637 85.917c-0.45-0.911-2.363-2.506-4.561-4.23C120.959 83.747 122.693 85.538 123.637 85.917zM119.076 81.688c-0.118-0.13-0.236-0.26-0.355-0.391 -0.021 0.022-0.041 0.044-0.061 0.065C118.8 81.471 118.941 81.58 119.076 81.688zM124.363 85.44c0.024-1.017-0.93-3.321-2.073-5.868C122.999 82.273 123.704 84.663 124.363 85.44zM122.29 79.572c-0.049-0.182-0.096-0.366-0.144-0.55 -0.029 0.01-0.062 0.021-0.09 0.032C122.134 79.227 122.214 79.401 122.29 79.572z" fill="url(#SvgjsRadialGradient3068)" opacity="1"></path><path id="SvgjsPath3071" d="M128.334 87c0 1.842-1.492 3.333-3.333 3.333s-3.335-1.492-3.335-3.333c0-1.841 1.494-3.334 3.335-3.334C126.844 83.666 128.334 85.159 128.334 87z" fill="#7b5c33" stroke-width="none" opacity="1" stroke="none"></path><path id="SvgjsPath3072" d="M128.334 87c0 1.842-1.492 3.333-3.333 3.333s-3.335-1.492-3.335-3.333c0-1.841 1.494-3.334 3.335-3.334C126.844 83.666 128.334 85.159 128.334 87z" fill="#000000" stroke-width="none" opacity="0.9"></path><path id="SvgjsPath3073" d="M120.35 90.893c0.636-0.427 1.5-0.255 1.927 0.38 0.427 0.637 0.258 1.5-0.379 1.927 -0.638 0.429-1.5 0.258-1.927-0.378C119.544 92.185 119.713 91.32 120.35 90.893L120.35 90.893z" fill="url(#SvgjsLinearGradient3074)" opacity="0.5"></path><path id="SvgjsPath3077" d="M127.635 86.536c-0.356 0.53-1.373 0.468-2.275-0.136 -0.903-0.605-1.346-1.526-0.991-2.055l0.001-0.001c0.354-0.53 1.372-0.469 2.274 0.137 0.903 0.604 1.346 1.524 0.992 2.054C127.635 86.536 127.635 86.536 127.635 86.536z" fill="url(#SvgjsLinearGradient3078)" opacity="0.5"></path><path id="SvgjsPath3081" d="M131.682 85.121c-0.806 1.237-2.884 1.31-4.641 0.166 -1.756-1.145-2.527-3.075-1.722-4.311 0.806-1.235 2.884-1.31 4.641-0.166C131.715 81.956 132.485 83.887 131.682 85.121L131.682 85.121z" fill="url(#SvgjsLinearGradient3082)" opacity="0.75"></path></g></g></g><g id="svga-group-eyesfront-right"><path id="SvgjsPath3027" d="M126.5 63c-9.94 0-18 11.192-18 25 0 13.807 8.06 24.999 18 24.999s18-11.192 18-24.999C144.5 74.192 136.44 63 126.5 63zM127.538 92.163c-3.614 0.398-13.873-1.561-14.253-2.847 -0.687-2.32 4.534-6.921 12.052-7.844 7.52-0.922 13.217 0.767 12.711 3.051C136.826 90.04 131.202 91.758 127.538 92.163z" fill="#ecc4b8" stroke-width="none" opacity="1"></path><path id="SvgjsPath3028" d="M127.538 92.163c-3.614 0.398-13.873-1.561-14.253-2.847 -0.687-2.32 4.534-6.921 12.052-7.844 6.46-0.792 11.563 0.345 12.556 2.128 -0.898-6.4-7.7-11.397-15.987-11.434 -8.911-0.037-16.148 5.676-16.172 12.765 -0.021 7.088 7.185 12.862 16.095 12.902 8.913 0.037 16.149-5.676 16.173-12.764 0-0.105-0.016-0.208-0.019-0.313C136.652 90.083 131.148 91.764 127.538 92.163z" fill="url(#SvgjsRadialGradient3029)" opacity="1"></path><path id="SvgjsPath3033" d="M138.048 84.523c0.506-2.285-5.191-3.973-12.711-3.051 -7.518 0.923-12.738 5.524-12.052 7.844 0.38 1.286 10.639 3.245 14.253 2.847C131.202 91.758 136.826 90.04 138.048 84.523z" fill="url(#SvgjsRadialGradient3034)" opacity="1"></path><path id="SvgjsPath3037" d="M137.651 79.417c-4.208-1.978-9.35-2.16-13.838-1.005 -2.404 0.561-4.965 1.285-7.063 2.638 -1.945 1.135-3.525 2.5-5.002 4.19 1.342-1.701 2.773-3.118 4.623-4.27 2.276-1.416 4.769-2.294 7.364-2.916C128.322 76.928 133.458 77.184 137.651 79.417z" fill="#be725b" stroke-width="none" opacity="1"></path><path id="SvgjsPath3038" d="M142.682 80.972c0 0-2.328 0.881-3.595 0.62 0.39-0.459 1.096-1.604 1.096-1.604s-1.853 0.551-3.151 0.032c-0.88-0.352-4.065-1-5.456-1.066 -1.687-0.082-5.073 0.125-6.735 0.424 -3.374 0.608-8.985 2.63-11.678 7.184 -0.255 0.572-1.407 0.921-1.407 0.921s1.02-0.215 1.149 0.042c0.282 0.561-1.298 2.016-1.496 2.197 0.161-0.145 1.289-1.135 1.722-0.967 0.061 0.022 0.137 0.388 0.155 0.482 -0.3-2.426 4.838-6.746 12.052-7.604 7.52-0.894 13.217 0.743 12.711 2.958 -1.222 5.348-6.846 7.013-10.51 7.405 -2.526 0.271-8.298-0.577-11.675-1.537l-1.011-0.317c1.999 1.009 7.524 2.195 9.767 2.403 0.744 0.07 2.24 0.104 2.986 0.085 5.949-0.158 10.16-3.179 11.729-7.26 0.125-0.328 0.494-0.619 0.838-0.696 1.604-0.361 5.096-1.811 5.096-1.811 -2.32 0.361-3.483 0.674-5.305 0.059C141.743 82.256 142.682 80.972 142.682 80.972z" fill="#000000" stroke-width="none" opacity="1"></path></g></g><g id="svga-group-facehighlight-single" ><path id="SvgjsPath2753" d="M140.204 113.007c0.035 22.275-17.995 40.365-40.273 40.396 -22.274 0.036-40.361-17.993-40.396-40.272C59.501 90.857 77.53 72.77 99.808 72.735 122.083 72.701 140.171 90.73 140.204 113.007z" fill="url(#SvgjsRadialGradient2754)" opacity="1"></path><path id="SvgjsPath2757" d="M135,55.999c0,19.329-15.671,35-35,35c-19.329,0-35-15.671-35-35s15.671-35,35-35C119.329,20.999,135,36.67,135,55.999z" fill="url(#SvgjsRadialGradient2758)" opacity="1"></path></g><g id="svga-group-eyebrows-left" ><path id="SvgjsPath3085" d="M74.799 69.068c-4.425-0.475-21.252 3.714-21.252 3.714s16.789-6.74 23.757-5.667c5.188 0.798 14.397 5.077 12.706 7.339C88.649 76.275 84.408 70.1 74.799 69.068z" fill="#2a232b" stroke-width="none" opacity="1"></path></g><g id="svga-group-eyebrows-right" ><path id="SvgjsPath3086" d="M109.731 74.187c-1.713-2.292 7.592-6.31 13.546-6.804 7.117-0.59 22.914 4.085 22.914 4.085s-15.9-2.628-20.377-2.106C115.998 70.506 111.11 76.031 109.731 74.187z" fill="#2a232b" stroke-width="none" opacity="1"></path></g><g id="svga-group-nose-single" ><path id="SvgjsPath2971" d="M99.94,119.956c-1.906-0.058-5.298-2.021-4.893-3.788c0.375-1.641,2.509,0.598,4.961,0.618c2.452,0.02,5.381-1.442,5.725,0.204C106.288,119.647,103.011,120.053,99.94,119.956z" fill="#dda696" stroke-width="none" opacity="1"></path><path id="SvgjsPath2972" d="M104.203,118.958c0.155,0.202,0.42,0.202,0.586-0.002c0.169-0.204,0.178-0.533,0.02-0.734c-1.15-1.481-3.219,0.505-3.064,0.71C101.804,119.011,103.336,117.853,104.203,118.958z M95.633,115.186c0.242,1.576,0.743,3.678,4.771,4.779c-3.972-0.117-6.554-0.855-6.533-4.551c0.011-1.867,1.964-5.712,1.964-5.712S95.378,113.521,95.633,115.186z" fill="#be725b" stroke-width="none" opacity="1"></path></g><g id="svga-group-hair-front" ><path id="SvgjsPath3161" d="M51.396 214.38c-15.723-25.105-21.321-14.91-17.672-42.457 -5.209-9.411-9.375-18.77-12.191-28.824 -5.598-21.481 0.132-35.265 5.142-50.948C21.889 26.813 59.341-9.001 100.71-9.001c32.28 0 67.16 23.47 67.471 75.221 -0.514 9.459-1.932 25.343-3.003 32.165 17.769 55.029 2.501 50.649-11.07 76.357 -3.681 6.968-8.012 17.267-8.919 27.573 -18.66-33.246-16.96-38.325-10.676-53.39 7.504-17.985 4.547-4.07-10.03-2.422 13.563-10.49 22.717-10.462 23.003-75.823 0.001-0.039-0.021-0.075-0.054-0.091 -12.352-5.881-24.037-17.006-31.256-29.76 -0.018-0.031-0.047-0.05-0.082-0.05 -0.001 0-0.003 0-0.003 0 -0.037 0.001-0.07 0.023-0.085 0.057 -8.335 17.787-22.626 27.374-46.336 31.084 -4.629 2.417-9.738 4.666-16.104 7.085 -0.037 0.014-0.063 0.051-0.063 0.092 -0.428 25.658 5.466 43.881 20.327 65.193 -7.085-3.254-12.746-12.711-12.746-12.711 -0.355 0 2.484 4.965 2.662 5.281C83.555 172.154 51.627 183.483 51.396 214.38z" fill="#2a232b" stroke-width="none" opacity="0.1"></path><path id="SvgjsPath3162" d="M50.101 212.286c-16.177-25.105-21.937-14.91-18.182-42.457 -5.36-9.411-9.647-18.77-12.543-28.824 -5.76-21.481 0.135-35.265 5.29-50.948C19.741 24.72 58.275-11.095 100.841-11.095c33.21 0 69.099 23.47 69.419 75.221 -0.527 9.459-1.984 25.343-3.089 32.165 18.283 55.029 2.573 50.649-11.39 76.357 -3.789 6.968-8.242 17.267-9.175 27.573 -19.202-33.246-17.451-38.325-10.984-53.39 7.718-17.985 2.953-4.116-10.321-1.223 13.954-10.49 23.373-11.661 23.668-77.022 0.001-0.039-0.022-0.075-0.058-0.091 -12.709-5.881-24.729-17.006-32.156-29.76 -0.018-0.031-0.051-0.05-0.086-0.05 -0.001 0-0.003 0-0.004 0 -0.037 0.001-0.07 0.023-0.086 0.057 -8.577 17.787-23.281 27.374-47.675 31.084 -4.764 2.417-10.02 4.666-16.569 7.085 -0.039 0.014-0.064 0.051-0.065 0.092 -0.441 25.657 5.624 44.881 20.914 66.193 -7.322-5.419-13.113-13.711-13.113-13.711 -0.366 0 2.556 4.965 2.738 5.281C83.189 170.061 50.338 181.39 50.101 212.286z" fill="#2a232b" stroke-width="none" opacity="1"></path><path id="SvgjsPath3163" d="M27.34 109.853c-0.751-7.729-12.676-57.451 16.781-93.862C30.129 43.148 26.056 79.801 27.34 109.853zM167.521 94.041c4.414-30.432 5.609-63.063-19.443-86.74C160.453 31.492 169.091 49.191 167.521 94.041zM143.14 22.856c-2.382 11.089 1.711 25.652 3.052 35.713C139.202 52.934 135.036 45 130.23 33.973c1.055 6.228 3.485 17.428 16.972 31.263 -21.798-19.468-26.475-29.291-22.914-52.455 -0.198 0.877-0.389 1.705-0.573 2.49C124.192 12.729 124.628 9.983 125 7c-3.201 18-27.117 50.049-47.061 56.902 -3.01 3.013-5.737 3.154-8.993 5.917 27.231-4.152 44.396-19.706 48.078-30.866 7.436 12.238 20.931 23.546 33.167 29.331C152.039 52.092 146.191 42.142 143.14 22.856zM101.536 23.569c-9 15-14.354 24.5-28.354 33.5 4.545-3.637 7.687-9.667 9.531-14.927C77.203 50.297 68.565 55.381 61 62c7.516-8.268 17.645-19.858 24.036-30.931 -6.442 8.582-16.813 15.337-26.036 23 7.256-6.029 13-13.667 17-21.667 -2.775 3.7-7.862 6.459-14 12.598 8.972-11.966 9.88-17.484 12.419-22.405 -6.216 10.474-11.655 14.106-17.794 19.295 -4.221 17.702-4.461 25.388-5.256 35.113 -0.039 0.469 17.113-6.963 17.535-7.177 0.014-0.002 0.028-0.005 0.042-0.007C84.938 56.249 91.502 42.094 101.536 23.569zM60 137c2.788 11.151 1.226 21.095-2.464 32.735 -0.488-10.761-8.475-21.806-14.417-31.462 1.364 20.726 3.566 30.364 0.083 46.129 -1.866-28.597-7.833-38.269-16.583-59.417 -3.527 13.393-2.659 30.866 5.299 44.844 -3.755 27.547 2.005 17.352 18.182 42.457 0.238-30.896 33.088-42.226 12.707-77.52 -0.183-0.316-3.104-5.281-2.738-5.281 0 0 5.792 8.292 13.113 13.711 -22.233-24.211-28.063-54.711-28.7-87.711C39.495 95.233 54 117 60 137zM169.126 101.456c0.865 16.928 5.439 38.169-9.257 51.947 6-10 3.131-23.403 0.131-33.403 0.376 26.762-10.812 42.834-13.809 60.402 -0.456-8.086-2.304-17.859 1.473-31.015 -3.663 6.402-7.795 13.848-9.388 22.723 -5.241-9.827-2.367-17.266-0.533-26.834 7.778-8.19 13.157-23.839 14.294-33.894 -0.935 8.266-6.287 20.703-12.478 25.897 -0.001 0.009-0.536 1.809-1.124 3.782 0.044-0.333 0.086-0.668 0.125-1.008 -8.928 21.01-13.345 23.131 8.046 60.166 0.845-9.357 4.724-19.388 9.175-27.573C169.236 147.874 184.401 150.477 169.126 101.456z" fill="#1b141c" stroke-width="none" opacity="1"></path><path id="SvgjsPath3164" d="M155.339 79.777c4.269-17.414-2.295-44.215-5.664-49.444C154.928 38.481 161.974 60.465 155.339 79.777zM159.441 87.699c0.458-2.363 14.095-28.735-8.994-65.914C171.332 59.802 159.905 85.303 159.441 87.699zM34.086 55.382c1-0.447 7.361-47.259 48.429-56.088C39.446 6.883 35.086 54.937 34.086 55.382zM39.756 99.767c-0.024-1.003-8.152-47.383 14.691-77.104C27.996 53.967 39.732 98.767 39.756 99.767zM43.013 131.156c-1.428-1.897-13.106-33.317-7.671-69.134C25.286 99.584 42.261 130.156 43.013 131.156zM153.395 30.807c-1-0.295-13.057-35.017-37.847-31.593C137.232-2.015 152.395 30.509 153.395 30.807zM132.763 48.797c0 0-9.419-14.771-6.004-39.082C123.607 24.555 123.938 34.813 132.763 48.797zM135.424 37.302c2.568 7.16 8.104 14.888 9.026 15.499 -1.001-0.663-9.66-13.341-11.684-34.227C132.946 24.843 133.284 31.334 135.424 37.302zM88.142 57.415c7.993-7.77 25.836-15.403 35.973-52.374C113.238 39.193 96.597 49.196 88.142 57.415zM88.167 27.009c6.991-6.677 9.494-13.522 9.407-19.946C96.858 13.51 93.367 22.043 88.167 27.009zM78.146 30.338c0.377-0.013 1.333-1.137 1.603-1.373 7.977-6.959 11.625-12.581 12.388-22.236C90.966 17.738 79.148 30.304 78.146 30.338zM76.803 28.359c0 0 8.23-9.662 11.186-23.308C84.859 15.938 76.803 28.359 76.803 28.359zM56.403 153.735c0.581-1 1.925-20.274-7.62-28.24C54.788 131.589 56.983 152.734 56.403 153.735zM56.42 153.725c-0.46-7.765-7.55-13.918-8.99-23.647C47.966 142.486 55.625 146.906 56.42 153.725zM41.095 160.402c-0.959-2.241 3.723-12.528-10.313-34.283C42.215 146.698 40.633 159.322 41.095 160.402zM41.115 159.081c-1.186-4.379 0.906-13.748-4.325-28.989C39.524 140.203 39.581 153.409 41.115 159.081zM150.024 131.289c-4.108 8.074-12.523 13.667-10.338 33.775 -0.201-1.853 0.16-3.941 0.305-5.79 1.957-24.953 8.672-5.729 16.046-52.242C154.253 114.17 152.895 125.648 150.024 131.289zM147.729 167.729c0.371-1.456 0.345-3.097 0.603-4.586 2.182-12.614 6.991-19.381 7.411-39.744C154.781 139.88 147.521 153.505 147.729 167.729zM165.107 141.027c0.469-3.128 6.825-7.942 1.996-32.945C169.849 133.741 165.568 137.951 165.107 141.027zM165.108 141.058c0.438-1 3.109-17.928-3.651-30.616C166.176 120.715 165.547 140.058 165.108 141.058z" fill="#3a353a" stroke-width="none" opacity="1"></path><path id="SvgjsPath3165" d="M18.901 151.753c0.248-2.574 0.649-5.177 1.238-7.817 2.5 7.838 5.503 15.074 11.68 25.88 -3.773 27.679 2.116 17.422 18.38 42.81 0-22.267 17.058-34.558 19.03-51.87 1.784-15.764-4.759-22.359-9.16-31.17 3.666 5.108 8.469 10.416 13.56 14.061 -14.507-20.062-21.735-38.961-21.26-66.64 5.63-2.08 11.2-4.36 16.55-7.08 21.469-3.266 38.274-11.49 47.75-31.14 7.314 12.562 19.169 23.77 32.2 29.8 -0.298 65.876-9.77 66.413-23.98 77.209 5.811-1.109 12.751-5.729 14.311-7.93 -9.068 23.75-15.193 23.472 7.479 62.68 0.796-9.556 4.586-19.383 9.19-27.85 13.917-25.626 29.741-22.284 11.45-77.29 1.544-9.539 2.827-18.686 3-27.83 0.175 3.245 0.276 6.377 0.367 9.425 0.214 0 0.428 0 0.641 0 -0.257-4.086-0.525-8.347-0.968-12.875 -0.657-106.408-155.465-102.179-145.79 25.9 -5.227 15.913-11.063 29.484-5.29 50.95 -0.926 3.002-1.626 5.909-2.137 8.749C17.674 150.456 18.233 151.159 18.901 151.753zM24.959 94.285c0.095 1 3.72 27.654 1.32 8.13C8.536-41.931 192.536-51.931 166.139 101.896c-1.794 10.454-0.768 5.549 0.961-5.12 17.259 58.25-3.75 45.563-18.32 87.37 -1.37 3.939-2.34 9-2.74 13.13 -21.623-38.089-11.207-41.533-5.64-60.7 6.599-7.292 10.615-15.871 11.71-26.52 -2.591 17.989-14.384 30.05-24.181 34.06 5.116-3.371 10.438-6.975 13.601-12.39 2.034-2.136 11.762-26.173 8.12-72.03 -1.673-20.141-8.437-26.107-6.931-34.66 -1.396 6.717 2.429 11.257 4.71 25.08 1.055 6.458 1.431 15.847 1.431 17.57 -10.923-5.965-24.91-18.89-31.76-29.79 4.461-9.145 6.782-23.075 8.6-31.87 -5.416 22.088-9.213 52.515-53.76 62.3 7.232-3.953 22.987-12.243 39.25-45.36 0.02-0.01 0.029-0.02 0.029-0.04 8.711-17.095 0.602-2.034-0.09-0.8 -0.013-0.026-0.01-0.103-0.01 0.01 -20.156 36.093-36.387 45.333-58.75 54.6 0.01-0.68 0.02-1.36 0.05-2.04 27.481-8.941 44.618-41.674 39.07-33.58 -8.877 13.02-24.155 28.015-39.06 33.34 0.017-1 0.183-4.32 0.46-7.14 19.215-13.644 23.448-20.838 30.89-33.8 0.556-0.979 1.037-1.813 1.454-2.526C80.75 37.814 68.93 54.19 52.939 66.715c0.44-4.62 1.1-9.22 1.89-13.79 0.921-1.218 8.834-7.552 15.32-20.74 3.094-6.249 4.27-9.59 4.27-9.59 -0.871 1.578-6.035 13.404-19.31 28.78 2.19-12.138 5.188-23.076 8.57-35.03 -5.756 17.895-11.357 37.272-13.01 56.8 -0.488 1-1.416 37.987 17.235 63.969 -28.77-30.95-24.066-68.987-23.885-81.719 -0.09 0-0.75 10.35-0.8 11.05 -3.867 51.415 25.597 63.853 24 90.61 -1.172 19.548-17.347 30.422-17.49 53.89 -12.637-21.956-19.809-15.55-16.85-39.3 0.077-1 1.134-8.253 0.08-15.33 -1.696-11.256-4.121-14.498-3.766-16.86 -0.269 1.428 0.351 2.886 1.417 6.7 1.909 6.668 2.163 15.704 1.33 22.73C15.417 136.337 17.729 119.042 24.959 94.285z" fill="#000000" stroke-width="none" opacity="1"></path></g><g id="svga-group-glasses-single" ><path id="SvgjsPath3191" d="M148.74 83.98c-0.07 5.17-2.36 10.62-5.3 14.98 -2.86 4.24-10.31 5.75-15.82 5.75 -4.5 0-8.51-0.92-11.02-2.53 -4.73-3.04-9.81-10.61-10.93-17.83C115.84 78.24 136.81 78.24 148.74 83.98zM51.26 83.28c-0.14 5.38 2.23 11.13 5.3 15.68 2.86 4.24 10.31 5.75 15.82 5.75 4.5 0 8.51-0.92 11.02-2.53 4.59-2.95 9.5-10.16 10.81-17.18C83.4 78.66 62.6 77.97 51.26 83.28z" fill="#ffffff" stroke-width="none" opacity="0.2"></path><path id="SvgjsPath3192" d="M148.74 83.98c-11.93-5.73-32.9-5.74-43.06 0.36 -0.17-1.1-0.25-2.19-0.23-3.26 0.22-8.25 12.02-11.18 22.06-11.18 7.08 0 15.44 1.47 18.14 4.74C147.91 77.39 148.79 80.62 148.74 83.98zM72.49 69.9c-7.08 0-15.44 1.47-18.14 4.74 -2.1 2.55-3.01 5.53-3.09 8.64 11.35-5.31 32.14-4.62 42.94 1.71 0.25-1.32 0.38-2.63 0.34-3.91C94.32 72.83 82.52 69.9 72.49 69.9z" fill="#ffffff" stroke-width="none" opacity="0.4"></path><path id="SvgjsPath3193" d="M154.48 72.86c-0.6-2.41-28.01-7.28-42.24-2.39 -3.44 1.18-5.82 2.23-7.24 3.72l0-0.02c-0.5 0.88-1.75 1.18-2.64 0.85 -1.6-0.61-3.22-0.58-4.72 0 -0.88 0.34-2.14 0.03-2.64-0.85l0 0.02c-1.42-1.49-3.79-2.53-7.24-3.72 -14.23-4.89-41.64-0.01-42.24 2.39 -0.23 0.95-0.54 6.06-0.52 7.89 0.02 1.83 1.16 1.69 2.87 2.49 0.66 0.31 2.04 2.67 2.17 3.64 0.63 4.54 2.44 8.75 5.26 12.93 4.82 7.14 21.71 8.27 28.91 3.64 4.98-3.2 10.14-10.73 11.51-18.22 0.27-1.49 0.52-2.65 0.71-3.65l0.01 0.05c0.36-1.23 1.97-1.83 3.57-1.86 1.6 0.03 3.21 0.63 3.57 1.86l0.01-0.05c0.18 1 0.44 2.16 0.71 3.65 1.37 7.49 6.53 15.02 11.51 18.22 7.2 4.63 24.09 3.5 28.91-3.64 2.82-4.18 4.63-8.39 5.26-12.93 0.13-0.98 1.51-3.34 2.17-3.64 1.71-0.8 2.86-0.65 2.87-2.49C155.02 78.92 154.71 73.8 154.48 72.86zM83.12 101.75c-6.38 4.1-22.02 3.04-26.15-3.07 -4.7-6.98-7.82-16.94-2.24-23.72 5.38-6.53 38.94-7.32 39.31 6.13C94.26 88.99 88.46 98.32 83.12 101.75zM143.03 98.68c-4.13 6.12-19.77 7.17-26.15 3.07 -5.34-3.43-11.14-12.76-10.92-20.66 0.37-13.45 33.93-12.66 39.31-6.13C150.85 81.73 147.73 91.7 143.03 98.68z" fill="#26120b" stroke-width="none" opacity="1"></path><path id="SvgjsPath3194" d="M45.37 73.94c0.05-0.5 0.1-0.89 0.15-1.09 0.6-2.41 28.01-7.28 42.24-2.39 3.44 1.18 5.82 2.23 7.24 3.72l0-0.02C95 74.15 73 62.54 45.37 73.94zM153.92 82.5c0.67-0.3 1.07-0.7 1.08-1.77 0.02-1.82-0.29-6.94-0.52-7.89 -0.6-2.41-28.01-7.28-42.24-2.39 -3.28 1.13-5.59 2.14-7.03 3.52 7.52-5.95 38.17-7.14 46.39 1.02C153.3 76.69 153.84 79.91 153.92 82.5z" fill="#351d15" stroke-width="none" opacity="1"></path></g></g></g><rect id="SvgjsRect1033" width="200" height="15" x="0" y="185" fill="#ecf0f1" opacity="0.5" style="display:none;"></rect><text id="SvgjsText1034" font-family="&quot;Roboto&quot;, &quot;Helvetica Neue&quot;, Helvetica, Arial, sans-serif" style="font-size:0.84em;font-family:&quot;Roboto&quot;, &quot;Helvetica Neue&quot;, Helvetica, Arial, sans-serif;text-anchor:middle;font-weight:400;display:none;" font-size="0.84em" text-anchor="middle" font-weight="400" fill="#000000" x="100" y="185"><tspan id="SvgjsTspan1035" dy="1.2em" x="100" style="font-size:0.84em;font-family:&quot;Roboto&quot;, &quot;Helvetica Neue&quot;, Helvetica, Arial, sans-serif;text-anchor:middle;font-weight:400;">www.creartuavatar.com</tspan></text></g><defs id="SvgjsDefs1001"><radialGradient id="SvgjsRadialGradient2754" cx="100" cy="113" r="40" gradientUnits="userSpaceOnUse" class="svga-on-canvas-facehighlight-gradient-single-0"><stop id="SvgjsStop2755" stop-opacity="0.5" stop-color="#fbe4dd" offset="0" ></stop><stop id="SvgjsStop2756" stop-opacity="0" stop-color="#ecc4b8" offset="0.9" ></stop></radialGradient><radialGradient id="SvgjsRadialGradient2758" cx="100" cy="57" r="36" gradientUnits="userSpaceOnUse" class="svga-on-canvas-facehighlight-gradient-single-1"><stop id="SvgjsStop2759" stop-opacity="0.5" stop-color="#fbe4dd" offset="0" ></stop><stop id="SvgjsStop2760" stop-opacity="0" stop-color="#ecc4b8" offset="0.9" ></stop></radialGradient><linearGradient id="SvgjsLinearGradient2939" x1="99.98" y1="171.27" x2="99.98" y2="136.351" gradientUnits="userSpaceOnUse" class="svga-on-canvas-chinshadow-gradient-single-0"><stop id="SvgjsStop2940" stop-opacity="0.8" stop-color="#dda696" offset="0" ></stop><stop id="SvgjsStop2941" stop-opacity="1" stop-color="#be725b" offset="0.7" ></stop></linearGradient><linearGradient id="SvgjsLinearGradient2960" x1="100" y1="141" x2="100" y2="137" gradientUnits="userSpaceOnUse" class="svga-on-canvas-mouth-gradient-single-0"><stop id="SvgjsStop2961" stop-opacity="1" stop-color="#e4b5a7" offset="0.1" ></stop><stop id="SvgjsStop2962" stop-opacity="1" stop-color="#dda696" offset="1" ></stop></linearGradient><radialGradient id="SvgjsRadialGradient2986" cx="129.05" cy="85.956" r="15.117" gradientTransform="matrix(-0.9945 0.1042 0.1042 0.9945 192.8274 -12.4637)" gradientUnits="userSpaceOnUse" class="svga-on-canvas-eyesback-gradient-left-0"><stop id="SvgjsStop2987" stop-opacity="1" stop-color="#ffffff" offset="0" ></stop><stop id="SvgjsStop2988" stop-opacity="1" stop-color="#fcfdfd" offset="0.316" ></stop><stop id="SvgjsStop2989" stop-opacity="1" stop-color="#f4f7f8" offset="0.505" ></stop><stop id="SvgjsStop2990" stop-opacity="1" stop-color="#e5ecef" offset="0.661" ></stop><stop id="SvgjsStop2991" stop-opacity="1" stop-color="#d8e2e7" offset="0.76" ></stop></radialGradient><radialGradient id="SvgjsRadialGradient2993" cx="129.049" cy="85.956" r="15.117" gradientTransform="matrix(0.9945 0.1042 -0.1042 0.9945 7.1735 -12.4637)" gradientUnits="userSpaceOnUse" class="svga-on-canvas-eyesback-gradient-right-0"><stop id="SvgjsStop2994" stop-opacity="1" stop-color="#ffffff" offset="0" ></stop><stop id="SvgjsStop2995" stop-opacity="1" stop-color="#fcfdfd" offset="0.316" ></stop><stop id="SvgjsStop2996" stop-opacity="1" stop-color="#f4f7f8" offset="0.505" ></stop><stop id="SvgjsStop2997" stop-opacity="1" stop-color="#e5ecef" offset="0.661" ></stop><stop id="SvgjsStop2998" stop-opacity="1" stop-color="#d8e2e7" offset="0.76" ></stop></radialGradient><radialGradient id="SvgjsRadialGradient3000" cx="129.05" cy="85.956" r="15.117" gradientTransform="matrix(-0.9945 0.1042 0.1042 0.9945 192.8274 -12.4637)" gradientUnits="userSpaceOnUse" class="svga-on-canvas-eyesfront-gradient-left-0"><stop id="SvgjsStop3001" stop-opacity="1" stop-color="#ffffff" offset="0" ></stop><stop id="SvgjsStop3002" stop-opacity="1" stop-color="#fcfdfd" offset="0.316" ></stop><stop id="SvgjsStop3003" stop-opacity="1" stop-color="#f4f7f8" offset="0.505" ></stop><stop id="SvgjsStop3004" stop-opacity="1" stop-color="#e5ecef" offset="0.661" ></stop><stop id="SvgjsStop3005" stop-opacity="1" stop-color="#d8e2e7" offset="0.76" ></stop></radialGradient><radialGradient id="SvgjsRadialGradient3009" cx="121.786" cy="84.496" fx="133.039" fy="84.527" r="16.003" gradientTransform="matrix(0.9998 0.0208 0.0166 -0.7998 -44.9524 149.5433)" gradientUnits="userSpaceOnUse" class="svga-on-canvas-eyesfront-gradient-left-3"><stop id="SvgjsStop3010" stop-opacity="1" stop-color="#dda696" offset="0" ></stop><stop id="SvgjsStop3011" stop-opacity="0.3" stop-color="#dda696" offset="0.7" ></stop><stop id="SvgjsStop3012" stop-opacity="0" stop-color="#ecc4b8" offset="1" ></stop></radialGradient><radialGradient id="SvgjsRadialGradient3014" cx="69.124" cy="107.529" r="29.525" gradientTransform="matrix(1.0336 0 0 1.0336 -1.6792 1.7282)" gradientUnits="userSpaceOnUse" class="svga-on-canvas-eyesfront-gradient-left-4"><stop id="SvgjsStop3015" stop-opacity="0" stop-color="#000000" offset="0.95" ></stop><stop id="SvgjsStop3016" stop-opacity="0.3" stop-color="#000000" offset="1" ></stop></radialGradient><radialGradient id="SvgjsRadialGradient3020" cx="129.049" cy="85.956" r="15.117" gradientTransform="matrix(0.9945 0.1042 -0.1042 0.9945 7.1735 -12.4637)" gradientUnits="userSpaceOnUse" class="svga-on-canvas-eyesfront-gradient-right-0"><stop id="SvgjsStop3021" stop-opacity="1" stop-color="#ffffff" offset="0" ></stop><stop id="SvgjsStop3022" stop-opacity="1" stop-color="#fcfdfd" offset="0.316" ></stop><stop id="SvgjsStop3023" stop-opacity="1" stop-color="#f4f7f8" offset="0.505" ></stop><stop id="SvgjsStop3024" stop-opacity="1" stop-color="#e5ecef" offset="0.661" ></stop><stop id="SvgjsStop3025" stop-opacity="1" stop-color="#d8e2e7" offset="0.76" ></stop></radialGradient><radialGradient id="SvgjsRadialGradient3029" cx="121.786" cy="84.496" fx="133.039" fy="84.527" r="16.003" gradientTransform="matrix(-0.9998 0.0208 -0.0166 -0.7998 244.9525 149.5433)" gradientUnits="userSpaceOnUse" class="svga-on-canvas-eyesfront-gradient-right-3"><stop id="SvgjsStop3030" stop-opacity="1" stop-color="#dda696" offset="0" ></stop><stop id="SvgjsStop3031" stop-opacity="0.3" stop-color="#dda696" offset="0.7" ></stop><stop id="SvgjsStop3032" stop-opacity="0" stop-color="#ecc4b8" offset="1" ></stop></radialGradient><radialGradient id="SvgjsRadialGradient3034" cx="69.124" cy="107.529" r="29.525" gradientTransform="matrix(-1.0336 0 0 1.0336 201.6792 1.7282)" gradientUnits="userSpaceOnUse" class="svga-on-canvas-eyesfront-gradient-right-4"><stop id="SvgjsStop3035" stop-opacity="0" stop-color="#000000" offset="0.95" ></stop><stop id="SvgjsStop3036" stop-opacity="0.3" stop-color="#000000" offset="1" ></stop></radialGradient><radialGradient id="SvgjsRadialGradient3041" cx="-558.588" cy="-490.918" r="84.646" gradientTransform="matrix(0.096 -0.0248 0.0245 0.0961 140.5478 120.3577)" gradientUnits="userSpaceOnUse" class="svga-on-canvas-eyesiris-gradient-left-1"><stop id="SvgjsStop3042" stop-opacity="0.8" stop-color="#ffffff" offset="0" ></stop><stop id="SvgjsStop3043" stop-opacity="0" stop-color="#ffffff" offset="1" ></stop></radialGradient><radialGradient id="SvgjsRadialGradient3045" cx="-565.337" cy="-492.691" r="84.644" gradientTransform="matrix(0.0991 8.856325e-004 -0.0011 0.0991 130.3774 136.3533)" gradientUnits="userSpaceOnUse" class="svga-on-canvas-eyesiris-gradient-left-2"><stop id="SvgjsStop3046" stop-opacity="0.8" stop-color="#ffffff" offset="0" ></stop><stop id="SvgjsStop3047" stop-opacity="0" stop-color="#ffffff" offset="1" ></stop></radialGradient><linearGradient id="SvgjsLinearGradient3051" x1="122.283" y1="93.047" x2="123.61" y2="91.466" gradientTransform="matrix(1 0 0 1 -52 0)" gradientUnits="userSpaceOnUse" class="svga-on-canvas-eyesiris-gradient-left-5"><stop id="SvgjsStop3052" stop-opacity="1" stop-color="#ffffff" offset="0" ></stop><stop id="SvgjsStop3053" stop-opacity="0" stop-color="#ffffff" offset="1" ></stop></linearGradient><linearGradient id="SvgjsLinearGradient3055" x1="127" y1="85" x2="125" y2="87" gradientTransform="matrix(1 0 0 1 -50 0)" gradientUnits="userSpaceOnUse" class="svga-on-canvas-eyesiris-gradient-left-6"><stop id="SvgjsStop3056" stop-opacity="1" stop-color="#ffffff" offset="0" ></stop><stop id="SvgjsStop3057" stop-opacity="0" stop-color="#ffffff" offset="1" ></stop></linearGradient><linearGradient id="SvgjsLinearGradient3059" x1="130" y1="81" x2="126" y2="85" gradientTransform="matrix(1 0 0 1 -50 0)" gradientUnits="userSpaceOnUse" class="svga-on-canvas-eyesiris-gradient-left-7"><stop id="SvgjsStop3060" stop-opacity="1" stop-color="#ffffff" offset="0" ></stop><stop id="SvgjsStop3061" stop-opacity="0" stop-color="#ffffff" offset="1" ></stop></linearGradient><radialGradient id="SvgjsRadialGradient3064" cx="-578.76" cy="-490.73" r="84.646" gradientTransform="matrix(0.096 -0.0248 0.0245 0.0961 192.4794 119.8404)" gradientUnits="userSpaceOnUse" class="svga-on-canvas-eyesiris-gradient-right-1"><stop id="SvgjsStop3065" stop-opacity="0.8" stop-color="#ffffff" offset="0" ></stop><stop id="SvgjsStop3066" stop-opacity="0" stop-color="#ffffff" offset="1" ></stop></radialGradient><radialGradient id="SvgjsRadialGradient3068" cx="-584.778" cy="-487.329" r="84.644" gradientTransform="matrix(0.0991 8.856325e-004 -0.0011 0.0991 182.3104 135.839)" gradientUnits="userSpaceOnUse" class="svga-on-canvas-eyesiris-gradient-right-2"><stop id="SvgjsStop3069" stop-opacity="0.8" stop-color="#ffffff" offset="0" ></stop><stop id="SvgjsStop3070" stop-opacity="0" stop-color="#ffffff" offset="1" ></stop></radialGradient><linearGradient id="SvgjsLinearGradient3074" x1="120.284" y1="93.047" x2="121.611" y2="91.467" gradientUnits="userSpaceOnUse" class="svga-on-canvas-eyesiris-gradient-right-5"><stop id="SvgjsStop3075" stop-opacity="1" stop-color="#ffffff" offset="0" ></stop><stop id="SvgjsStop3076" stop-opacity="0" stop-color="#ffffff" offset="1" ></stop></linearGradient><linearGradient id="SvgjsLinearGradient3078" x1="127" y1="85" x2="125" y2="87" gradientUnits="userSpaceOnUse" class="svga-on-canvas-eyesiris-gradient-right-6"><stop id="SvgjsStop3079" stop-opacity="1" stop-color="#ffffff" offset="0" ></stop><stop id="SvgjsStop3080" stop-opacity="0" stop-color="#ffffff" offset="1" ></stop></linearGradient><linearGradient id="SvgjsLinearGradient3082" x1="130" y1="81" x2="126" y2="85" gradientUnits="userSpaceOnUse" class="svga-on-canvas-eyesiris-gradient-right-7"><stop id="SvgjsStop3083" stop-opacity="1" stop-color="#ffffff" offset="0" ></stop><stop id="SvgjsStop3084" stop-opacity="0" stop-color="#ffffff" offset="1" ></stop></linearGradient></defs></svg>