<svg xmlns="http://www.w3.org/2000/svg" xmlns:xlink="http://www.w3.org/1999/xlink" viewBox="0 0 523.47 310.49"><defs><style>.cls-1{fill:url(#Degradado_sin_nombre_85);}.cls-2{fill:url(#Degradado_sin_nombre_85-2);}.cls-3{fill:#000;}</style><linearGradient id="Degradado_sin_nombre_85" x1="526.21" y1="104.29" x2="255.2" y2="31.67" gradientUnits="userSpaceOnUse"><stop offset="0.04" stop-color="#4d2871"/><stop offset="0.36" stop-color="#fd185a"/><stop offset="0.63" stop-color="#fd1e56"/><stop offset="1" stop-color="#fa8212"/></linearGradient><linearGradient id="Degradado_sin_nombre_85-2" x1="1778.54" y1="2959.92" x2="1523.45" y2="2840.97" gradientTransform="translate(1782.55 3156.57) rotate(180)" xlink:href="#Degradado_sin_nombre_85"/></defs><g id="Capa_2" data-name="Capa 2"><g id="Capa_2-2" data-name="Capa 2"><path class="cls-1" d="M478.56,102.16a68.66,68.66,0,0,1-11.82,36.93l-.17.28a21.61,21.61,0,0,0,8.51,30.73c9.12,4.64,20.29,1.64,26.72-6.32a94.33,94.33,0,0,0,12.33-19.3,6.88,6.88,0,0,0,.32-.74l3.68-10.18a99.3,99.3,0,0,0,5.34-32.25c0-2.26-.1-4.49-.25-6.71l0-.51C519.45,41.71,475.44,0,422.16,0H281.62c-11.17,0-21.14,7.86-22.86,18.89a22.49,22.49,0,0,0,22.16,26H422.16a56.77,56.77,0,0,1,55.21,45,23,23,0,0,1,.4,2.87Z"/><path class="cls-2" d="M44.91,207.37a68.58,68.58,0,0,1,11.83-36.93l.16-.27a21.6,21.6,0,0,0-8.06-30.5c-10.08-5.42-22.71-1.52-28.82,8.16L8.89,165.48,5.27,176.05A100.32,100.32,0,0,0,0,208.23c0,2.25.1,4.48.25,6.7l0,.51C4,267.82,48,309.53,101.31,309.53H241.85c11.17,0,21.14-7.86,22.87-18.89a22.5,22.5,0,0,0-22.17-26H101.31a56.77,56.77,0,0,1-55.21-45,23,23,0,0,1-.4-2.87Z"/><path class="cls-3" d="M74.54,221.71h1.3v13.11H93V221.71h1.3v27.93H93v-13.7H75.84v13.7h-1.3Z"/><path class="cls-3" d="M99.71,244.58c0-3.06,2.16-5.33,7.6-5.33a30.13,30.13,0,0,1,5.17.45v-1.64c0-3.8-1.75-5.92-5.36-5.92-4.8,0-5.51,3.57-5.51,3.57h-.93v-.93s1.16-3.76,6.48-3.76c4.28,0,6.55,2.46,6.55,7.11v11.51h-1l-.11-4.43a6.52,6.52,0,0,1-6.44,4.8C101.72,250,99.71,247.67,99.71,244.58ZM112.48,242v-1.26a27.15,27.15,0,0,0-5.21-.45c-5,0-6.4,2-6.4,4.25,0,2.71,1.86,4.35,5.36,4.35C110.58,248.93,112.48,245.25,112.48,242Z"/><path class="cls-3" d="M118.26,240.55c0-5.28,3.53-9.53,8.71-9.53,5.77,0,7.11,4.51,7.11,4.51v.93h-.93s-.93-4.28-6.22-4.28c-4.84,0-7.45,4.17-7.45,8.37s2.61,8.34,7.49,8.34c5.4,0,6.22-4.35,6.22-4.35h.93v.93S132.7,250,126.93,250C121.79,250,118.26,245.88,118.26,240.55Z"/><path class="cls-3" d="M138.74,221.71H140V240l10.58-8.56h.82v.81l-9.76,7.86,10.32,8.64v.93H151l-11-9.38v9.38h-1.22Z"/><path class="cls-3" d="M153.56,244.58c0-3.06,2.15-5.33,7.59-5.33a30.17,30.17,0,0,1,5.18.45v-1.64c0-3.8-1.75-5.92-5.37-5.92-4.8,0-5.51,3.57-5.51,3.57h-.93v-.93S155.68,231,161,231c4.28,0,6.55,2.46,6.55,7.11v11.51h-1l-.12-4.43A6.52,6.52,0,0,1,160,250C155.57,250,153.56,247.67,153.56,244.58ZM166.33,242v-1.26a27.33,27.33,0,0,0-5.22-.45c-5,0-6.4,2-6.4,4.25,0,2.71,1.86,4.35,5.36,4.35C164.43,248.93,166.33,245.25,166.33,242Z"/><path class="cls-3" d="M174,244.2V232.51h-3V231.4h3.16l.11-5h1v5h7.3v1.11h-7.3v11.36c0,3.09,1.27,5,4.13,5,2.61,0,3.54-1.93,3.72-3.79H184V246a4.51,4.51,0,0,1-4.69,4C176.38,250,174,248.15,174,244.2Z"/><path class="cls-3" d="M187.14,221.71h1.23v13.71a6.32,6.32,0,0,1,6.41-4.4c4.87,0,6.73,3.09,6.73,8.08v10.54h-1.22v-10c0-4.77-1.38-7.52-5.66-7.52-3.62,0-6.26,2.64-6.26,7.48v10h-1.23Z"/><path class="cls-3" d="M206,240.55c0-5.32,3.54-9.53,8.71-9.53s8.72,4.14,8.72,9.46-3.54,9.53-8.72,9.53S206,245.88,206,240.55Zm16.2-.07c0-4.17-2.61-8.34-7.52-8.34s-7.45,4.21-7.45,8.41,2.61,8.34,7.48,8.34S222.22,244.69,222.22,240.48Z"/><path class="cls-3" d="M228.21,231.4h1l.11,4.54a6.33,6.33,0,0,1,6.56-4.92c4.87,0,6.74,3.09,6.74,8.08v10.54h-1.23v-10c0-4.77-1.38-7.52-5.66-7.52-3.61,0-6.26,2.64-6.26,7.48v10h-1.23Z"/><path class="cls-3" d="M257.15,235.57c0-8.34,4.84-14.23,13.25-14.23,8,0,10.35,5.44,10.35,5.44v.93h-.93s-1.94-5.25-9.42-5.25c-7.82,0-11.95,5.92-11.95,13.11,0,7.74,4.88,13.32,12,13.32,7.44,0,9.57-5.43,9.57-5.43h.93v.93s-2.57,5.62-10.5,5.62C262,250,257.15,243.79,257.15,235.57Z"/><path class="cls-3" d="M284,240.55c0-5.32,3.54-9.53,8.71-9.53s8.72,4.14,8.72,9.46-3.54,9.53-8.72,9.53S284,245.88,284,240.55Zm16.2-.07c0-4.17-2.61-8.34-7.52-8.34s-7.45,4.21-7.45,8.41,2.61,8.34,7.48,8.34S300.23,244.69,300.23,240.48Z"/><path class="cls-3" d="M306.22,221.71h1.23v27.93h-1.23Z"/><path class="cls-3" d="M312,244.58c0-3.06,2.16-5.33,7.6-5.33a30.13,30.13,0,0,1,5.17.45v-1.64c0-3.8-1.75-5.92-5.36-5.92-4.8,0-5.51,3.57-5.51,3.57H313v-.93s1.15-3.76,6.48-3.76c4.28,0,6.55,2.46,6.55,7.11v11.51h-1l-.11-4.43a6.53,6.53,0,0,1-6.44,4.8C314,250,312,247.67,312,244.58ZM324.8,242v-1.26a27.15,27.15,0,0,0-5.21-.45c-5,0-6.4,2-6.4,4.25,0,2.71,1.86,4.35,5.36,4.35C322.9,248.93,324.8,245.25,324.8,242Z"/><path class="cls-3" d="M333.11,245.51l-.26,4.13h-1V221.71h1.23v13.93a7.82,7.82,0,0,1,7.22-4.62c4.95,0,8.71,4.17,8.71,9.27,0,5.48-3.61,9.72-8.71,9.72A7.81,7.81,0,0,1,333.11,245.51Zm14.7-5.22c0-4.39-3.12-8.15-7.48-8.15-4.73,0-7.22,3.69-7.22,8.15,0,7.34,4.87,8.6,7.22,8.6C344.16,248.89,347.81,245.8,347.81,240.29Z"/><path class="cls-3" d="M352.47,240.55c0-5.32,3.54-9.53,8.71-9.53s8.71,4.14,8.71,9.46-3.53,9.53-8.71,9.53S352.47,245.88,352.47,240.55Zm16.2-.07c0-4.17-2.61-8.34-7.53-8.34s-7.44,4.21-7.44,8.41,2.6,8.34,7.48,8.34S368.67,244.69,368.67,240.48Z"/><path class="cls-3" d="M374.66,231.4h1l.15,3.2a5.15,5.15,0,0,1,5.1-3.58,4.85,4.85,0,0,1,5.17,4.43v.93h-.93c-.59-3.16-2.12-4.24-4.35-4.24-3.87,0-4.88,3.43-4.88,6.33v11.17h-1.23Z"/><path class="cls-3" d="M387.51,244.58c0-3.06,2.16-5.33,7.59-5.33a30.17,30.17,0,0,1,5.18.45v-1.64c0-3.8-1.75-5.92-5.36-5.92-4.8,0-5.51,3.57-5.51,3.57h-.93v-.93S389.63,231,395,231c4.28,0,6.55,2.46,6.55,7.11v11.51h-1l-.11-4.43A6.53,6.53,0,0,1,394,250C389.52,250,387.51,247.67,387.51,244.58ZM400.28,242v-1.26a27.15,27.15,0,0,0-5.21-.45c-5,0-6.41,2-6.41,4.25,0,2.71,1.87,4.35,5.37,4.35C398.38,248.93,400.28,245.25,400.28,242Z"/><path class="cls-3" d="M407.91,244.2V232.51h-3V231.4h3.16l.11-5h1v5h7.3v1.11h-7.3v11.36c0,3.09,1.27,5,4.14,5,2.6,0,3.53-1.93,3.72-3.79h.93V246a4.51,4.51,0,0,1-4.69,4C410.33,250,407.91,248.15,407.91,244.2Z"/><path class="cls-3" d="M420.69,222.83h2.12V225h-2.12Zm.44,8.57h1.23v18.24h-1.23Z"/><path class="cls-3" d="M433.57,249.64l-7.37-17.28v-1h1l7,16.45,7-16.45H442v.89l-7.29,17.35Z"/><path class="cls-3" d="M443.92,244.58c0-3.06,2.16-5.33,7.6-5.33a30.13,30.13,0,0,1,5.17.45v-1.64c0-3.8-1.75-5.92-5.36-5.92-4.8,0-5.51,3.57-5.51,3.57h-.93v-.93S446,231,451.37,231c4.28,0,6.55,2.46,6.55,7.11v11.51h-1l-.11-4.43a6.53,6.53,0,0,1-6.44,4.8C445.93,250,443.92,247.67,443.92,244.58ZM456.69,242v-1.26a27.15,27.15,0,0,0-5.21-.45c-5,0-6.4,2-6.4,4.25,0,2.71,1.86,4.35,5.36,4.35C454.79,248.93,456.69,245.25,456.69,242Z"/><path class="cls-3" d="M109.77,88.92,98.85,128.29H84.32L68.94,70.69V63.82H82.17L92.4,108.09l11.78-44.27H116.3l11.44,44.27L138.4,63.82H151v6l-15.56,58.46H120.86Z"/><path class="cls-3" d="M153.36,106.71c0-12.72,8.25-23.12,22.87-23.12s21.06,8.85,21.06,20.46a26.2,26.2,0,0,1-.6,5.5H166.43c.77,5.85,4.21,9.63,10.57,9.63,7.74,0,9.29-4,9.29-4h10.14V121s-4.21,8.6-19.69,8.6C161.1,129.58,153.36,119.61,153.36,106.71Zm31.47-5c0-4.13-2.84-7.83-8.69-7.83-5.67,0-8.42,3.27-9.45,7.83Z"/><path class="cls-3" d="M203.48,106.71c0-12.72,8.26-23.12,22.87-23.12s21.06,8.85,21.06,20.46a26.2,26.2,0,0,1-.6,5.5H216.55c.77,5.85,4.21,9.63,10.57,9.63,7.74,0,9.29-4,9.29-4h10.14V121s-4.21,8.6-19.68,8.6C211.22,129.58,203.48,119.61,203.48,106.71Zm31.47-5c0-4.13-2.84-7.83-8.69-7.83-5.67,0-8.42,3.27-9.45,7.83Z"/><path class="cls-3" d="M256,63.82h13V102.5l14.62-17.62H294.7v5.76l-12.64,15,14.36,16.67v6H284.3L269,109.55v18.74H256Z"/><path class="cls-3" d="M300,106.71c0-12.72,8.25-23.12,22.87-23.12S344,92.44,344,104.05a26.2,26.2,0,0,1-.6,5.5H313.1c.77,5.85,4.21,9.63,10.57,9.63,7.74,0,9.29-4,9.29-4H343.1V121s-4.21,8.6-19.69,8.6C307.77,129.58,300,119.61,300,106.71Zm31.47-5c0-4.13-2.84-7.83-8.69-7.83-5.67,0-8.42,3.27-9.45,7.83Z"/><path class="cls-3" d="M352.56,84.88h12.12l.6,5.76a14.7,14.7,0,0,1,13-7c11.52,0,15.56,8.25,15.56,17.71v27H380.93V103.71c0-5.08-2-8.52-7.14-8.52-6.27,0-8.25,4.48-8.25,8.69v24.41h-13Z"/><path class="cls-3" d="M402.08,106.63c0-13,7.65-23,19.6-23a16.17,16.17,0,0,1,14,7.13V63.82h12.9v64.47h-12l-.77-6.19c-2.84,4.56-8,7.48-14.36,7.48C409.22,129.58,402.08,119.27,402.08,106.63Zm33.61-.09c0-6.36-4.12-11.26-10.31-11.26-6.71,0-10.32,5-10.32,11.35s3.61,11.26,10.32,11.26C431.57,117.89,435.69,113,435.69,106.54Z"/><path class="cls-3" d="M70.48,175.83c0-20.2,12.55-33.53,31.55-33.53,17.2,0,23.47,9.2,24.5,13.42v6.53H115.27c-.51-2.49-3.78-7.82-13.06-7.82-10.67,0-17.46,8.08-17.46,21.32,0,13,6.79,21.4,17.46,21.4,9.11,0,12.89-5.67,13.49-8.16H127v6.53c-1.37,5.16-8.94,13.84-24.93,13.84C82.26,209.36,70.48,195.6,70.48,175.83Z"/><path class="cls-3" d="M132.64,186.23c0-12.63,8.51-22.86,23-22.86s23,10.23,23,22.86-8.6,23.13-23,23.13S132.64,199,132.64,186.23Zm32.93,0c0-6.36-3.18-11.6-10-11.6s-10,5.24-10,11.6c0,6.54,3.18,11.87,10,11.87S165.57,192.77,165.57,186.23Z"/><path class="cls-3" d="M184.83,186.41c0-13,7.65-23,19.6-23a16.19,16.19,0,0,1,14,7.13V143.59h12.89v64.48h-12l-.78-6.19c-2.83,4.56-8,7.48-14.35,7.48C192,209.36,184.83,199,184.83,186.41Zm33.61-.09c0-6.36-4.13-11.26-10.32-11.26-6.7,0-10.31,5-10.31,11.35s3.61,11.26,10.31,11.26C214.31,197.67,218.44,192.77,218.44,186.32Z"/><path class="cls-3" d="M239.93,186.49c0-12.72,8.26-23.12,22.87-23.12s21.06,8.85,21.06,20.46a26.2,26.2,0,0,1-.6,5.5H253c.78,5.84,4.21,9.63,10.58,9.63,7.73,0,9.28-4,9.28-4H283v5.76s-4.21,8.6-19.68,8.6C247.67,209.36,239.93,199.39,239.93,186.49Zm31.47-5c0-4.13-2.84-7.83-8.68-7.83-5.68,0-8.43,3.27-9.46,7.83Z"/><path class="cls-3" d="M298.88,182.25v-3.09h4.4l8.51,22.4,8.6-22.4h4.16v2.7l-10.33,26.21h-5.09Z"/><path class="cls-3" d="M324.9,202.79h5.28v5.28H324.9Z"/><path class="cls-3" d="M334.19,197.9v-8.56c0-5.9,3.93-10.64,10.4-10.64,6.63,0,10.45,4.74,10.45,10.64v8.56c0,5.85-3.93,10.63-10.45,10.63S334.19,203.75,334.19,197.9Zm15.76,0v-8.56c0-3.51-1.77-6.36-5.36-6.36-3.43,0-5.35,2.85-5.35,6.36v8.56c0,3.46,1.81,6.36,5.35,6.36S350,201.36,350,197.9Z"/><path class="cls-3" d="M364.21,184.87l-2.69,2.27h-3.47v-2.77l6.9-5.21h4.43v28.91h-5.17Z"/><path class="cls-3" d="M284.76,283.84l-3,2.56h-3.91v-3.13l7.77-5.86h5V310h-5.82Z"/><path class="cls-3" d="M296.48,303.68v-3.13h4.43c0,.44.95,4.91,5.59,4.91,3.52,0,5.56-2.87,5.56-6,0-3.56-2.13-6.08-5.64-6.08-3.34,0-4.6,1.61-4.6,1.61l-3.74-1.39,1.74-16.2h16.11v5.08H304.29l-.87,7a11.23,11.23,0,0,1,4-.79c5.94,0,10.46,3.78,10.46,10.73,0,6.42-4.52,10.89-11.33,10.89C299.17,310.36,296.69,304.81,296.48,303.68Z"/><path class="cls-3" d="M332.07,299.08c0-6.38,3.86-11.42,10-11.42a8.61,8.61,0,0,1,7.38,3.73v-14h5.25V310h-4.82l-.43-3.25a8.68,8.68,0,0,1-7.43,3.77C335.8,310.49,332.07,305.33,332.07,299.08Zm17.41-.05c0-3.73-2.39-6.77-6.08-6.77-4,0-6,3-6,6.82s2,6.81,6,6.81C347.09,305.89,349.48,302.85,349.48,299Z"/><path class="cls-3" d="M359.5,299.08c0-6.3,3.95-11.42,11.07-11.42s10.25,4.25,10.25,9.85a15,15,0,0,1-.22,2.57H364.8c.3,3.68,2.34,6,6.25,6,4.51,0,5.51-2.35,5.51-2.35h3.82v2.87s-2.17,3.86-9.37,3.86C363.37,310.49,359.5,305.67,359.5,299.08Zm16.19-2.56c0-2.52-1.65-4.52-5.12-4.52s-5,1.87-5.6,4.52Z"/><path class="cls-3" d="M395,299.08c0-6.3,3.95-11.42,11.07-11.42s10.24,4.25,10.24,9.85a15,15,0,0,1-.22,2.57H400.3c.31,3.68,2.35,6,6.25,6,4.52,0,5.52-2.35,5.52-2.35h3.82v2.87s-2.17,3.86-9.38,3.86C398.87,310.49,395,305.67,395,299.08Zm16.19-2.56c0-2.52-1.65-4.52-5.12-4.52s-5,1.87-5.6,4.52Z"/><path class="cls-3" d="M421.14,288.18H426l.3,2.91a7.72,7.72,0,0,1,6.64-3.43c5.91,0,8.08,4.12,8.08,9.07V310h-5.3V297.38c0-3-1.22-5.16-4.34-5.16-3.73,0-4.95,2.69-4.95,5.16V310h-5.25Z"/><path class="cls-3" d="M445.53,299.08c0-6.3,4-11.42,11.07-11.42s10.25,4.25,10.25,9.85a15,15,0,0,1-.22,2.57h-15.8c.3,3.68,2.34,6,6.25,6,4.51,0,5.51-2.35,5.51-2.35h3.82v2.87s-2.17,3.86-9.38,3.86C449.39,310.49,445.53,305.67,445.53,299.08Zm16.19-2.56c0-2.52-1.65-4.52-5.12-4.52s-5,1.87-5.6,4.52Z"/><path class="cls-3" d="M471.66,288.18h4.82l.3,2.87a6.66,6.66,0,0,1,6.08-3.39c3.26,0,5,1.74,5.43,3.95v2.95h-3.78a3.21,3.21,0,0,0-3.43-2.43c-2.82,0-4.17,2.3-4.17,5.38V310h-5.25Z"/><path class="cls-3" d="M489.93,299c0-6.29,4.17-11.37,11.29-11.37s11.24,5.08,11.24,11.37-4.21,11.46-11.24,11.46S489.93,305.33,489.93,299Zm17.24,0c0-3.73-1.87-6.86-5.95-6.86s-6,3.13-6,6.86,1.91,7,6,7S507.17,302.85,507.17,299Z"/></g></g></svg>